<svg width="1501" height="751" viewBox="0 0 1501 751" fill="none" xmlns="http://www.w3.org/2000/svg">
<path fill-rule="evenodd" clip-rule="evenodd" d="M750.046 21.1641C634.302 21.1641 540.473 114.993 540.473 230.736C540.473 346.48 634.302 440.309 750.046 440.309C865.789 440.309 959.618 346.48 959.618 230.736C959.618 114.993 865.789 21.1641 750.046 21.1641ZM879.219 359.909C854.778 384.35 817.358 384.35 750.046 384.35C682.733 384.35 645.313 384.35 620.873 359.909C596.432 335.469 596.432 298.049 596.432 230.736C596.432 163.424 596.432 126.004 620.873 101.564C645.313 77.1232 682.733 77.1232 750.046 77.1232C817.358 77.1232 854.778 77.1232 879.219 101.564C903.659 126.004 903.659 163.424 903.659 230.736C903.659 298.049 903.659 335.469 879.219 359.909Z" fill="#0D0D0D"/>
<path d="M741.007 191.95V130.55H756.884V191.95H741.007ZM717.793 132.158V118.692H779.897V132.158H717.793ZM793.166 191.95L772.665 118.692H788.844L802.31 174.665H801.004L815.173 118.692H830.348L844.316 174.665H843.11L856.676 118.692H873.056L852.154 191.95H834.97L822.107 140.599H823.514L810.551 191.95H793.166Z" fill="#0D0D0D"/>
<path d="M777.434 726.724L723.248 532.135H761.418L799.588 686.952H795.852L836.424 532.135H872.726L912.498 686.685H909.295L947.466 532.135H986.17L931.183 726.724H890.076L852.707 580.716H856.711L818.807 726.724H777.434ZM1042.16 729.394C1027.04 729.394 1013.78 726.101 1002.39 719.517C991.18 712.933 982.461 703.769 976.232 692.024C970.182 680.101 967.157 666.31 967.157 650.65C967.157 634.635 970.182 620.755 976.232 609.01C982.461 597.265 991.18 588.101 1002.39 581.516C1013.78 574.932 1027.13 571.64 1042.43 571.64C1057.56 571.64 1070.73 574.932 1081.94 581.516C1093.14 588.101 1101.78 597.265 1107.82 609.01C1114.05 620.755 1117.16 634.635 1117.16 650.65C1117.16 666.31 1114.05 680.101 1107.82 692.024C1101.78 703.769 1093.14 712.933 1081.94 719.517C1070.73 726.101 1057.47 729.394 1042.16 729.394ZM1042.16 699.231C1054.26 699.231 1063.7 694.96 1070.45 686.418C1077.22 677.877 1080.61 665.865 1080.61 650.383C1080.61 634.902 1077.22 622.979 1070.45 614.615C1063.7 606.074 1054.26 601.803 1042.16 601.803C1030.06 601.803 1020.63 606.074 1013.87 614.615C1007.11 623.157 1003.73 635.08 1003.73 650.383C1003.73 665.865 1007.11 677.877 1013.87 686.418C1020.63 694.96 1030.06 699.231 1042.16 699.231Z" fill="#0D0D0D"/>
<path d="M76.1691 726.724V559.895H113.539V726.724H76.1691ZM12.6406 564.166V532.135H176.8V564.166H12.6406ZM200.014 729.393C184.888 729.393 171.63 726.101 160.241 719.517C149.031 712.933 140.311 703.768 134.083 692.024C128.032 680.101 125.007 666.31 125.007 650.65C125.007 634.634 128.032 620.754 134.083 609.009C140.311 597.265 149.031 588.1 160.241 581.516C171.63 574.932 184.977 571.64 200.28 571.64C215.406 571.64 228.575 574.932 239.785 581.516C250.996 588.1 259.627 597.265 265.677 609.009C271.906 620.754 275.02 634.634 275.02 650.65C275.02 666.31 271.906 680.101 265.677 692.024C259.627 703.768 250.996 712.933 239.785 719.517C228.575 726.101 215.317 729.393 200.014 729.393ZM200.014 699.231C212.114 699.231 221.546 694.96 228.308 686.418C235.07 677.876 238.451 665.865 238.451 650.383C238.451 634.901 235.07 622.979 228.308 614.615C221.546 606.073 212.114 601.802 200.014 601.802C187.913 601.802 178.481 606.073 171.719 614.615C164.957 623.157 161.576 635.079 161.576 650.383C161.576 665.865 164.957 677.876 171.719 686.418C178.481 694.96 187.913 699.231 200.014 699.231ZM388.395 726.724L343.284 654.921L319.528 677.343L319.795 636.236L381.188 574.309H427.366L365.706 633.3V625.559L432.171 726.724H388.395ZM285.895 726.724V515.852H322.731V726.724H285.895ZM487.452 729.393C472.682 729.393 459.603 726.368 448.214 720.318C436.825 714.089 427.928 705.103 421.521 693.358C415.115 681.613 411.912 667.377 411.912 650.65C411.912 634.634 414.937 620.754 420.988 609.009C427.038 597.087 435.58 587.922 446.612 581.516C457.823 574.932 471.081 571.64 486.384 571.64C501.688 571.64 514.857 575.021 525.89 581.783C536.922 588.545 545.197 598.599 550.714 611.946C556.23 625.114 558.188 641.308 556.586 660.526H441.808V635.435H530.961L518.416 646.379C520.729 631.965 518.861 620.576 512.81 612.213C506.938 603.849 497.951 599.667 485.851 599.667C474.284 599.667 465.03 603.76 458.09 611.946C451.328 620.131 447.947 632.766 447.947 649.849C447.947 667.466 451.417 680.368 458.357 688.553C465.297 696.561 475.174 700.565 487.986 700.565C497.773 700.565 505.692 698.43 511.743 694.159C517.971 689.888 521.886 683.838 523.487 676.008L555.251 684.016C553.294 693.091 549.201 701.01 542.973 707.772C536.745 714.534 528.915 719.873 519.483 723.788C510.052 727.525 499.375 729.393 487.452 729.393ZM568.952 726.724V574.309H602.851L604.453 595.663C610.503 587.299 617.354 581.249 625.006 577.512C632.658 573.597 641.645 571.64 651.966 571.64C667.448 571.64 679.904 576.089 689.335 584.986C698.945 593.706 703.75 606.785 703.75 624.224V726.724H666.914V629.563C666.914 621.377 664.6 615.06 659.974 610.611C655.347 605.984 648.496 603.671 639.42 603.671C633.37 603.671 627.765 605.006 622.604 607.675C617.621 610.344 613.617 614.17 610.592 619.153C607.745 623.957 606.144 629.741 605.788 636.503V726.724H568.952Z" fill="#0D0D0D"/>
<path d="M1127.01 726.45V574.035L1159.69 574.31L1161.65 598.066C1166.9 589.346 1173.14 582.94 1180.35 578.847C1187.79 574.578 1196.54 572.443 1206.6 572.443C1213.16 572.443 1218.43 572.977 1222.36 574.043V608.476H1220.39C1218.63 607.942 1216.45 607.497 1213.83 607.141C1211.42 606.786 1208.79 606.608 1205.95 606.608C1194.15 606.608 1184.51 609.277 1177.07 614.615C1169.86 619.776 1165.49 626.983 1163.95 636.237V726.725L1127.01 726.45Z" fill="#0D0D0D"/>
<path d="M1324.57 726.725L1279.47 654.922L1255.71 677.343L1255.98 636.237L1317.38 574.31H1363.55L1301.88 633.301V625.56L1368.35 726.725H1324.57ZM1222.08 726.725V515.853H1258.91V726.725H1222.08Z" fill="#0D0D0D"/>
<path d="M1421.79 729.394C1401.68 729.394 1386.02 724.945 1374.8 716.047C1363.61 707.15 1357.45 694.96 1356.4 679.478L1391.63 675.207C1391.63 683.749 1394.38 690.689 1399.9 696.028C1405.59 701.188 1413.34 703.769 1423.13 703.769C1431.3 703.769 1437.81 702.256 1442.61 699.231C1447.41 696.206 1449.82 691.401 1449.82 684.817C1449.82 680.546 1448.75 677.254 1446.61 674.941C1444.65 672.449 1441.81 670.492 1438.07 669.068C1434.34 667.467 1429.89 666.132 1424.72 665.064C1419.74 663.997 1414.14 662.751 1407.91 661.327C1398.31 659.192 1390.02 656.345 1383.09 652.786C1376.14 649.227 1370.8 644.6 1367.07 638.905C1363.33 633.211 1361.46 626.182 1361.46 617.818C1361.46 608.387 1363.96 600.201 1368.95 593.261C1374.1 586.321 1381.31 580.983 1390.56 577.246C1399.81 573.509 1410.67 571.64 1423.13 571.64C1435.58 571.64 1446.26 573.42 1455.16 576.979C1464.22 580.538 1471.27 585.698 1476.24 592.46C1481.41 599.222 1484.34 607.408 1485.06 617.018L1450.36 621.555C1450.36 613.725 1447.95 607.675 1443.15 603.404C1438.35 598.956 1431.23 596.731 1421.79 596.731C1414.14 596.731 1408.26 598.333 1404.17 601.536C1400.25 604.561 1398.31 608.565 1398.31 613.548C1398.31 617.996 1399.72 621.555 1402.57 624.225C1405.59 626.894 1410.04 629.029 1415.92 630.631C1421.96 632.232 1429.45 634.012 1438.35 635.969C1445.28 637.393 1451.69 639.172 1457.55 641.308C1463.61 643.265 1468.86 645.935 1473.31 649.316C1477.76 652.697 1481.22 657.057 1483.72 662.395C1486.21 667.556 1487.45 674.14 1487.45 682.148C1487.45 696.206 1481.94 707.595 1470.9 716.314C1460.05 725.034 1443.69 729.394 1421.79 729.394Z" fill="#0D0D0D"/>
</svg>
