<svg width="2001" height="501" viewBox="0 0 2001 501" fill="none" xmlns="http://www.w3.org/2000/svg">
<rect width="2000" height="500" transform="translate(0.851562 0.912109)" fill="#F2F2F2"/>
<path fill-rule="evenodd" clip-rule="evenodd" d="M271.632 76.8096C175.478 76.8096 97.5293 154.758 97.5293 250.912C97.5293 347.066 175.478 425.014 271.632 425.014C367.786 425.014 445.734 347.066 445.734 250.912C445.734 154.758 367.786 76.8096 271.632 76.8096ZM378.942 358.222C358.638 378.526 327.552 378.526 271.632 378.526C215.712 378.526 184.625 378.526 164.321 358.222C144.017 337.919 144.017 306.832 144.017 250.912C144.017 194.992 144.017 163.905 164.321 143.602C184.625 123.298 215.712 123.298 271.632 123.298C327.552 123.298 358.638 123.298 378.942 143.602C399.246 163.905 399.246 194.992 399.246 250.912C399.246 306.832 399.246 337.919 378.942 358.222Z" fill="#0D0D0D"/>
<path d="M264.123 218.69V167.682H277.313V218.69H264.123ZM244.838 169.018V157.831H296.431V169.018H244.838ZM307.454 218.69L290.423 157.831H303.864L315.051 204.331H313.965L325.736 157.831H338.343L349.947 204.331H348.945L360.215 157.831H373.823L356.458 218.69H342.183L331.497 176.03H332.666L321.896 218.69H307.454Z" fill="#0D0D0D"/>
<path d="M1237.72 348.732L1186.86 166.082H1222.69L1258.52 311.4H1255.01L1293.09 166.082H1327.17L1364.5 311.149H1361.49L1397.32 166.082H1433.65L1382.04 348.732H1343.45L1308.38 211.681H1312.14L1276.56 348.732H1237.72ZM1486.21 351.237C1472.01 351.237 1459.57 348.147 1448.88 341.967C1438.36 335.786 1430.17 327.184 1424.32 316.16C1418.65 304.969 1415.81 292.024 1415.81 277.325C1415.81 262.292 1418.65 249.264 1424.32 238.24C1430.17 227.215 1438.36 218.613 1448.88 212.433C1459.57 206.253 1472.1 203.163 1486.46 203.163C1500.66 203.163 1513.02 206.253 1523.55 212.433C1534.06 218.613 1542.17 227.215 1547.84 238.24C1553.69 249.264 1556.61 262.292 1556.61 277.325C1556.61 292.024 1553.69 304.969 1547.84 316.16C1542.17 327.184 1534.06 335.786 1523.55 341.967C1513.02 348.147 1500.57 351.237 1486.21 351.237ZM1486.21 322.925C1497.57 322.925 1506.43 318.916 1512.76 310.899C1519.11 302.881 1522.3 291.606 1522.3 277.075C1522.3 262.543 1519.11 251.352 1512.76 243.501C1506.43 235.484 1497.57 231.475 1486.21 231.475C1474.85 231.475 1466 235.484 1459.65 243.501C1453.3 251.519 1450.13 262.71 1450.13 277.075C1450.13 291.606 1453.3 302.881 1459.65 310.899C1466 318.916 1474.85 322.925 1486.21 322.925Z" fill="#0D0D0D"/>
<path d="M579.486 348.731V192.138H614.563V348.731H579.486ZM519.855 196.147V166.081H673.943V196.147H519.855ZM695.732 351.237C681.534 351.237 669.09 348.147 658.4 341.966C647.877 335.786 639.692 327.184 633.846 316.16C628.167 304.969 625.328 292.024 625.328 277.325C625.328 262.292 628.167 249.263 633.846 238.239C639.692 227.215 647.877 218.613 658.4 212.433C669.09 206.253 681.617 203.163 695.982 203.163C710.18 203.163 722.54 206.253 733.063 212.433C743.586 218.613 751.688 227.215 757.367 238.239C763.213 249.263 766.136 262.292 766.136 277.325C766.136 292.024 763.213 304.969 757.367 316.16C751.688 327.184 743.586 335.786 733.063 341.966C722.54 348.147 710.097 351.237 695.732 351.237ZM695.732 322.925C707.09 322.925 715.943 318.916 722.29 310.898C728.637 302.881 731.811 291.606 731.811 277.074C731.811 262.542 728.637 251.351 722.29 243.501C715.943 235.483 707.09 231.474 695.732 231.474C684.374 231.474 675.521 235.483 669.174 243.501C662.826 251.518 659.653 262.71 659.653 277.074C659.653 291.606 662.826 302.881 669.174 310.898C675.521 318.916 684.374 322.925 695.732 322.925ZM872.555 348.731L830.212 281.334L807.913 302.38L808.164 263.795L865.79 205.668H909.135L851.258 261.039V253.773L913.645 348.731H872.555ZM776.344 348.731V150.798H810.92V348.731H776.344ZM965.534 351.237C951.671 351.237 939.394 348.397 928.704 342.718C918.013 336.872 909.662 328.437 903.649 317.413C897.635 306.388 894.629 293.026 894.629 277.325C894.629 262.292 897.469 249.263 903.148 238.239C908.827 227.048 916.844 218.446 927.2 212.433C937.723 206.253 950.167 203.163 964.532 203.163C978.897 203.163 991.257 206.336 1001.61 212.683C1011.97 219.031 1019.74 228.468 1024.91 240.995C1030.09 253.356 1031.93 268.556 1030.43 286.595H922.69V263.044H1006.37L994.598 273.316C996.769 259.786 995.015 249.096 989.336 241.246C983.824 233.395 975.389 229.47 964.031 229.47C953.174 229.47 944.488 233.312 937.974 240.995C931.627 248.679 928.453 260.538 928.453 276.573C928.453 293.109 931.71 305.219 938.224 312.903C944.739 320.419 954.009 324.177 966.035 324.177C975.222 324.177 982.655 322.173 988.334 318.164C994.18 314.155 997.855 308.476 999.358 301.127L1029.17 308.643C1027.34 317.162 1023.49 324.595 1017.65 330.942C1011.8 337.289 1004.45 342.3 995.6 345.975C986.747 349.483 976.725 351.237 965.534 351.237ZM1042.03 348.731V205.668H1073.85L1075.36 225.712C1081.04 217.861 1087.47 212.182 1094.65 208.675C1101.83 205 1110.27 203.163 1119.95 203.163C1134.49 203.163 1146.18 207.338 1155.03 215.69C1164.05 223.874 1168.56 236.151 1168.56 252.521V348.731H1133.98V257.532C1133.98 249.848 1131.81 243.918 1127.47 239.743C1123.13 235.4 1116.7 233.228 1108.18 233.228C1102.5 233.228 1097.24 234.481 1092.39 236.987C1087.72 239.492 1083.96 243.083 1081.12 247.76C1078.45 252.27 1076.94 257.699 1076.61 264.046V348.731H1042.03Z" fill="#0D0D0D"/>
<path d="M1565.85 348.474V205.411L1596.52 205.669L1598.37 227.967C1603.29 219.783 1609.15 213.77 1615.92 209.928C1622.9 205.921 1631.11 203.916 1640.56 203.916C1646.72 203.916 1651.66 204.417 1655.35 205.418V237.739H1653.5C1651.85 237.238 1649.8 236.82 1647.35 236.486C1645.08 236.152 1642.61 235.985 1639.95 235.985C1628.87 235.985 1619.82 238.49 1612.84 243.501C1606.07 248.345 1601.97 255.11 1600.52 263.796V348.732L1565.85 348.474Z" fill="#0D0D0D"/>
<path d="M1751.29 348.732L1708.96 281.334L1686.65 302.381L1686.91 263.796L1744.54 205.669H1787.88L1729.99 261.04V253.774L1792.39 348.732H1751.29ZM1655.09 348.732V150.799H1689.66V348.732H1655.09Z" fill="#0D0D0D"/>
<path d="M1842.55 351.237C1823.67 351.237 1808.97 347.061 1798.44 338.71C1787.93 330.358 1782.15 318.916 1781.16 304.384L1814.24 300.376C1814.24 308.393 1816.81 314.907 1822 319.918C1827.34 324.762 1834.61 327.184 1843.8 327.184C1851.47 327.184 1857.58 325.765 1862.09 322.925C1866.59 320.085 1868.86 315.576 1868.86 309.395C1868.86 305.387 1867.85 302.297 1865.85 300.125C1864 297.787 1861.34 295.949 1857.82 294.613C1854.33 293.11 1850.15 291.857 1845.3 290.855C1840.62 289.853 1835.36 288.683 1829.52 287.347C1820.5 285.343 1812.73 282.67 1806.22 279.33C1799.69 275.989 1794.68 271.646 1791.19 266.301C1787.67 260.956 1785.91 254.358 1785.91 246.508C1785.91 237.655 1788.26 229.972 1792.94 223.457C1797.78 216.943 1804.55 211.932 1813.23 208.424C1821.91 204.917 1832.11 203.163 1843.8 203.163C1855.49 203.163 1865.51 204.833 1873.87 208.174C1882.37 211.514 1888.99 216.358 1893.65 222.706C1898.5 229.053 1901.25 236.736 1901.93 245.756L1869.36 250.015C1869.36 242.666 1867.1 236.987 1862.59 232.978C1858.08 228.802 1851.4 226.714 1842.55 226.714C1835.36 226.714 1829.85 228.218 1826 231.224C1822.33 234.064 1820.5 237.822 1820.5 242.499C1820.5 246.675 1821.83 250.015 1824.5 252.521C1827.34 255.026 1831.52 257.031 1837.03 258.534C1842.7 260.037 1849.73 261.708 1858.08 263.545C1864.59 264.881 1870.61 266.552 1876.11 268.556C1881.8 270.393 1886.72 272.899 1890.9 276.072C1895.08 279.246 1898.33 283.338 1900.68 288.349C1903.01 293.193 1904.18 299.373 1904.18 306.89C1904.18 320.085 1899.01 330.776 1888.64 338.96C1878.46 347.145 1863.1 351.237 1842.55 351.237Z" fill="#0D0D0D"/>
</svg>
