<svg width="1561" height="301" viewBox="0 0 1561 301" fill="none" xmlns="http://www.w3.org/2000/svg">
<path fill-rule="evenodd" clip-rule="evenodd" d="M153.853 0.824219C71.0098 0.824219 3.85254 67.9815 3.85254 150.824C3.85254 233.667 71.0098 300.824 153.853 300.824C236.695 300.824 303.853 233.667 303.853 150.824C303.853 67.9815 236.695 0.824219 153.853 0.824219ZM246.307 243.279C228.814 260.772 202.031 260.772 153.853 260.772C105.674 260.772 78.891 260.772 61.3979 243.279C43.9049 225.786 43.9049 199.003 43.9049 150.824C43.9049 102.646 43.9049 75.8627 61.3979 58.3696C78.891 40.8766 105.674 40.8766 153.853 40.8766C202.031 40.8766 228.814 40.8766 246.307 58.3696C263.8 75.8627 263.8 102.646 263.8 150.824C263.8 199.003 263.8 225.786 246.307 243.279Z" fill="#F2F2F2"/>
<path d="M147.383 123.063V79.1162H158.747V123.063H147.383ZM130.768 80.2671V70.629H175.218V80.2671H130.768ZM184.715 123.063L170.042 70.629H181.623L191.261 110.692H190.326L200.467 70.629H211.328L221.326 110.692H220.463L230.173 70.629H241.897L226.936 123.063H214.637L205.43 86.3089H206.437L197.159 123.063H184.715Z" fill="#F2F2F2"/>
<path d="M986.2 235.102L942.38 77.7376H973.248L1004.12 202.938H1001.09L1033.91 77.7376H1063.26L1095.43 202.722H1092.84L1123.7 77.7376H1155.01L1110.54 235.102H1077.29L1047.07 117.025H1050.31L1019.66 235.102H986.2ZM1200.29 237.26C1188.05 237.26 1177.33 234.598 1168.12 229.273C1159.06 223.949 1152.01 216.538 1146.97 207.04C1142.08 197.398 1139.63 186.245 1139.63 173.581C1139.63 160.629 1142.08 149.404 1146.97 139.906C1152.01 130.408 1159.06 122.997 1168.12 117.672C1177.33 112.348 1188.13 109.685 1200.5 109.685C1212.73 109.685 1223.39 112.348 1232.46 117.672C1241.51 122.997 1248.5 130.408 1253.38 139.906C1258.42 149.404 1260.94 160.629 1260.94 173.581C1260.94 186.245 1258.42 197.398 1253.38 207.04C1248.5 216.538 1241.51 223.949 1232.46 229.273C1223.39 234.598 1212.66 237.26 1200.29 237.26ZM1200.29 212.868C1210.07 212.868 1217.71 209.414 1223.16 202.506C1228.64 195.599 1231.38 185.885 1231.38 173.365C1231.38 160.845 1228.64 151.203 1223.16 144.439C1217.71 137.532 1210.07 134.078 1200.29 134.078C1190.5 134.078 1182.87 137.532 1177.41 144.439C1171.94 151.347 1169.2 160.989 1169.2 173.365C1169.2 185.885 1171.94 195.599 1177.41 202.506C1182.87 209.414 1190.5 212.868 1200.29 212.868Z" fill="#F2F2F2"/>
<path d="M419.088 235.102V100.187H449.309V235.102H419.088ZM367.713 103.641V77.7373H500.468V103.641H367.713ZM519.241 237.26C507.009 237.26 496.288 234.598 487.077 229.273C478.011 223.949 470.96 216.537 465.923 207.039C461.03 197.397 458.583 186.245 458.583 173.581C458.583 160.629 461.03 149.404 465.923 139.906C470.96 130.408 478.011 122.997 487.077 117.672C496.288 112.347 507.081 109.685 519.457 109.685C531.689 109.685 542.338 112.347 551.405 117.672C560.471 122.997 567.45 130.408 572.343 139.906C577.38 149.404 579.898 160.629 579.898 173.581C579.898 186.245 577.38 197.397 572.343 207.039C567.45 216.537 560.471 223.949 551.405 229.273C542.338 234.598 531.617 237.26 519.241 237.26ZM519.241 212.868C529.027 212.868 536.654 209.414 542.122 202.506C547.591 195.599 550.325 185.885 550.325 173.365C550.325 160.845 547.591 151.203 542.122 144.439C536.654 137.531 529.027 134.078 519.241 134.078C509.455 134.078 501.828 137.531 496.359 144.439C490.891 151.347 488.157 160.989 488.157 173.365C488.157 185.885 490.891 195.599 496.359 202.506C501.828 209.414 509.455 212.868 519.241 212.868ZM671.585 235.102L635.104 177.034L615.892 195.167L616.108 161.924L665.756 111.844H703.101L653.236 159.549V153.289L706.986 235.102H671.585ZM588.693 235.102V64.5697H618.482V235.102H588.693ZM751.692 237.26C739.748 237.26 729.171 234.814 719.961 229.921C710.75 224.884 703.555 217.617 698.374 208.119C693.194 198.621 690.603 187.108 690.603 173.581C690.603 160.629 693.05 149.404 697.943 139.906C702.835 130.264 709.743 122.853 718.665 117.672C727.732 112.347 738.453 109.685 750.829 109.685C763.205 109.685 773.854 112.419 782.777 117.888C791.699 123.356 798.391 131.487 802.852 142.28C807.313 152.93 808.896 166.025 807.601 181.567H714.78V161.276H786.878L776.733 170.127C778.603 158.47 777.092 149.26 772.199 142.496C767.45 135.733 760.183 132.351 750.397 132.351C741.043 132.351 733.56 135.661 727.948 142.28C722.479 148.9 719.745 159.118 719.745 172.933C719.745 187.18 722.551 197.613 728.163 204.233C733.776 210.709 741.763 213.947 752.124 213.947C760.039 213.947 766.443 212.22 771.336 208.766C776.373 205.312 779.539 200.419 780.834 194.088L806.522 200.563C804.939 207.903 801.629 214.307 796.592 219.775C791.555 225.244 785.223 229.561 777.596 232.727C769.969 235.749 761.334 237.26 751.692 237.26ZM817.601 235.102V111.844H845.016L846.311 129.113C851.204 122.349 856.744 117.456 862.932 114.434C869.12 111.268 876.388 109.685 884.734 109.685C897.255 109.685 907.328 113.283 914.955 120.478C922.726 127.53 926.612 138.107 926.612 152.21V235.102H896.823V156.527C896.823 149.908 894.952 144.799 891.21 141.201C887.469 137.459 881.928 135.589 874.589 135.589C869.696 135.589 865.163 136.668 860.99 138.827C856.96 140.985 853.722 144.079 851.276 148.109C848.973 151.994 847.678 156.671 847.39 162.14V235.102H817.601Z" fill="#F2F2F2"/>
<path d="M1268.9 234.88V111.622L1295.33 111.844L1296.92 131.056C1301.16 124.004 1306.21 118.824 1312.04 115.514C1318.05 112.062 1325.13 110.335 1333.27 110.335C1338.58 110.335 1342.83 110.766 1346.01 111.628V139.475H1344.42C1343 139.043 1341.23 138.683 1339.11 138.395C1337.17 138.107 1335.04 137.964 1332.74 137.964C1323.2 137.964 1315.4 140.122 1309.39 144.439C1303.56 148.613 1300.02 154.441 1298.78 161.924V235.102L1268.9 234.88Z" fill="#F2F2F2"/>
<path d="M1428.67 235.102L1392.2 177.035L1372.98 195.168L1373.2 161.925L1422.85 111.844H1460.19L1410.32 159.55V153.29L1464.08 235.102H1428.67ZM1345.79 235.102V64.5704H1375.57V235.102H1345.79Z" fill="#F2F2F2"/>
<path d="M1507.29 237.26C1491.03 237.26 1478.36 233.663 1469.29 226.467C1460.24 219.272 1455.26 209.414 1454.41 196.894L1482.9 193.44C1482.9 200.348 1485.12 205.96 1489.59 210.278C1494.19 214.451 1500.46 216.538 1508.37 216.538C1514.98 216.538 1520.25 215.314 1524.13 212.868C1528.01 210.421 1529.96 206.536 1529.96 201.211C1529.96 197.757 1529.09 195.095 1527.37 193.224C1525.78 191.21 1523.48 189.627 1520.46 188.475C1517.44 187.18 1513.84 186.101 1509.66 185.237C1505.63 184.374 1501.1 183.367 1496.07 182.215C1488.3 180.488 1481.6 178.186 1475.99 175.308C1470.37 172.43 1466.05 168.688 1463.04 164.083C1460.01 159.478 1458.5 153.793 1458.5 147.03C1458.5 139.402 1460.52 132.783 1464.56 127.17C1468.72 121.558 1474.55 117.241 1482.03 114.218C1489.51 111.196 1498.3 109.685 1508.37 109.685C1518.45 109.685 1527.08 111.124 1534.28 114.003C1541.61 116.881 1547.3 121.054 1551.32 126.523C1555.5 131.991 1557.87 138.611 1558.46 146.382L1530.39 150.052C1530.39 143.72 1528.45 138.827 1524.56 135.373C1520.68 131.775 1514.92 129.976 1507.29 129.976C1501.1 129.976 1496.35 131.272 1493.04 133.862C1489.87 136.308 1488.3 139.546 1488.3 143.576C1488.3 147.174 1489.44 150.052 1491.75 152.21C1494.19 154.369 1497.79 156.096 1502.54 157.391C1507.43 158.686 1513.48 160.125 1520.68 161.708C1526.29 162.86 1531.47 164.299 1536.21 166.026C1541.11 167.609 1545.35 169.767 1548.95 172.501C1552.55 175.236 1555.35 178.762 1557.38 183.079C1559.39 187.252 1560.39 192.577 1560.39 199.053C1560.39 210.421 1555.94 219.632 1547 226.683C1538.23 233.735 1525 237.26 1507.29 237.26Z" fill="#F2F2F2"/>
</svg>
