<svg width="1401" height="701" viewBox="0 0 1401 701" fill="none" xmlns="http://www.w3.org/2000/svg">
<g clip-path="url(#clip0_90_106)">
<rect x="0.808594" y="0.912109" width="1500" height="800" fill="#F2F2F2"/>
<path d="M210.676 349.349V152.801H254.703V349.349H210.676ZM135.83 157.833V120.095H329.234V157.833H135.83ZM356.583 352.494C338.762 352.494 323.143 348.616 309.725 340.859C296.517 333.102 286.244 322.305 278.907 308.467C271.778 294.421 268.214 278.173 268.214 259.723C268.214 240.855 271.778 224.502 278.907 210.665C286.244 196.828 296.517 186.031 309.725 178.274C323.143 170.516 338.867 166.638 356.897 166.638C374.717 166.638 390.231 170.516 403.439 178.274C416.648 186.031 426.816 196.828 433.944 210.665C441.282 224.502 444.951 240.855 444.951 259.723C444.951 278.173 441.282 294.421 433.944 308.467C426.816 322.305 416.648 333.102 403.439 340.859C390.231 348.616 374.612 352.494 356.583 352.494ZM356.583 316.958C370.839 316.958 381.95 311.927 389.917 301.863C397.884 291.8 401.867 277.648 401.867 259.409C401.867 241.169 397.884 227.123 389.917 217.269C381.95 207.206 370.839 202.174 356.583 202.174C342.326 202.174 331.214 207.206 323.248 217.269C315.281 227.332 311.298 241.379 311.298 259.409C311.298 277.648 315.281 291.8 323.248 301.863C331.214 311.927 342.326 316.958 356.583 316.958ZM578.523 349.349L525.378 264.755L497.387 291.171L497.703 242.742L570.032 169.783H624.438L551.794 239.282V230.163L630.098 349.349H578.523ZM457.763 349.349V100.912H501.161V349.349H457.763ZM695.226 352.494C677.826 352.494 662.416 348.93 649.001 341.802C635.582 334.464 625.1 323.877 617.552 310.04C610.003 296.203 606.229 279.431 606.229 259.723C606.229 240.855 609.796 224.502 616.922 210.665C624.052 196.618 634.115 185.821 647.112 178.274C660.32 170.516 675.94 166.638 693.97 166.638C712.001 166.638 727.513 170.621 740.513 178.588C753.51 186.555 763.26 198.4 769.76 214.124C776.257 229.639 778.564 248.717 776.678 271.359H641.452V241.798H746.489L731.705 254.692C734.431 237.71 732.229 224.292 725.103 214.439C718.184 204.585 707.597 199.658 693.341 199.658C679.714 199.658 668.811 204.48 660.636 214.124C652.669 223.768 648.684 238.653 648.684 258.78C648.684 279.536 652.772 294.735 660.949 304.379C669.127 313.814 680.763 318.531 695.856 318.531C707.386 318.531 716.717 316.015 723.844 310.983C731.181 305.951 735.796 298.823 737.681 289.599L775.106 299.033C772.799 309.725 767.977 319.055 760.639 327.022C753.302 334.988 744.076 341.278 732.964 345.89C721.853 350.293 709.275 352.494 695.226 352.494ZM791.244 349.349V169.783H831.184L833.07 194.941C840.199 185.087 848.272 177.959 857.287 173.557C866.302 168.944 876.889 166.638 889.049 166.638C907.287 166.638 921.965 171.879 933.076 182.362C944.395 192.635 950.058 208.044 950.058 228.59V349.349H906.66V234.88C906.66 225.236 903.934 217.793 898.482 212.552C893.031 207.101 884.961 204.375 874.269 204.375C867.139 204.375 860.537 205.948 854.455 209.092C848.585 212.237 843.868 216.745 840.305 222.615C836.949 228.276 835.064 235.089 834.645 243.056V349.349H791.244Z" fill="#0D0D0D"/>
<path d="M267.386 597.767L203.548 368.513H248.518L293.488 550.911H289.088L336.886 368.513H379.657L426.512 550.595H422.738L467.708 368.513H513.308L448.528 597.767H400.097L356.07 425.749H360.786L316.13 597.767H267.386ZM579.277 600.911C561.457 600.911 545.837 597.035 532.421 589.276C519.214 581.52 508.939 570.722 501.602 556.884C494.472 542.839 490.909 526.589 490.909 508.14C490.909 489.273 494.472 472.92 501.602 459.083C508.939 445.246 519.214 434.447 532.421 426.691C545.837 418.934 561.563 415.056 579.593 415.056C597.412 415.056 612.934 418.934 626.145 426.691C639.337 434.447 649.512 445.246 656.632 459.083C663.969 472.92 667.638 489.273 667.638 508.14C667.638 526.589 663.969 542.839 656.632 556.884C649.512 570.722 639.337 581.52 626.145 589.276C612.934 597.035 597.307 600.911 579.277 600.911ZM579.277 565.375C593.533 565.375 604.657 560.345 612.605 550.282C620.578 540.219 624.573 526.065 624.573 507.827C624.573 489.586 620.578 475.541 612.605 465.685C604.657 455.622 593.533 450.592 579.277 450.592C565.021 450.592 553.909 455.622 545.942 465.685C537.975 475.749 533.994 489.797 533.994 507.827C533.994 526.065 537.975 540.219 545.942 550.282C553.909 560.345 565.021 565.375 579.277 565.375Z" fill="#0D0D0D"/>
<path d="M679.235 597.445V417.878L717.737 418.201L720.05 446.189C726.231 435.918 733.591 428.37 742.088 423.548C750.844 418.518 761.15 416.002 773.009 416.002C780.74 416.002 786.943 416.631 791.573 417.887V458.454H789.26C787.182 457.825 784.607 457.301 781.526 456.882C778.688 456.463 775.588 456.252 772.246 456.252C758.335 456.252 746.977 459.397 738.221 465.686C729.727 471.768 724.572 480.258 722.76 491.159V597.768L679.235 597.445Z" fill="#0D0D0D"/>
<path d="M911.994 597.768L858.859 513.174L830.861 539.59L831.191 491.159L903.519 418.202H957.919L885.262 487.701V478.581L963.576 597.768H911.994ZM791.247 597.768V349.331H834.639V597.768H791.247Z" fill="#0D0D0D"/>
<path d="M1026.54 600.912C1002.84 600.912 984.389 595.671 971.175 585.189C957.987 574.707 950.736 560.346 949.489 542.105L991.005 537.075C991.005 547.138 994.239 555.313 1000.75 561.602C1007.45 567.683 1016.58 570.722 1028.11 570.722C1037.74 570.722 1045.4 568.942 1051.06 565.376C1056.72 561.813 1059.56 556.153 1059.56 548.394C1059.56 543.364 1058.29 539.484 1055.78 536.758C1053.46 533.825 1050.12 531.518 1045.71 529.84C1041.32 527.954 1036.08 526.382 1029.99 525.123C1024.11 523.867 1017.52 522.397 1010.18 520.722C998.866 518.204 989.106 514.852 980.938 510.659C972.748 506.466 966.458 501.015 962.071 494.304C957.657 487.596 955.452 479.316 955.452 469.46C955.452 458.349 958.399 448.707 964.276 440.53C970.348 432.352 978.842 426.063 989.739 421.662C1000.64 417.258 1013.44 415.057 1028.11 415.057C1042.78 415.057 1055.36 417.153 1065.85 421.346C1076.52 425.539 1084.82 431.62 1090.68 439.587C1096.77 447.554 1100.22 457.195 1101.07 468.517L1060.19 473.864C1060.19 464.638 1057.35 457.511 1051.69 452.478C1046.04 447.237 1037.65 444.617 1026.54 444.617C1017.52 444.617 1010.59 446.506 1005.77 450.28C1001.16 453.843 998.866 458.56 998.866 464.43C998.866 469.671 1000.53 473.864 1003.89 477.008C1007.45 480.153 1012.69 482.668 1019.62 484.557C1026.73 486.442 1035.56 488.539 1046.04 490.846C1054.21 492.524 1061.76 494.62 1068.66 497.135C1075.81 499.442 1081.99 502.587 1087.23 506.569C1092.47 510.554 1096.55 515.689 1099.5 521.978C1102.43 528.06 1103.89 535.816 1103.89 545.249C1103.89 561.813 1097.4 575.231 1084.39 585.502C1071.61 595.777 1052.33 600.912 1026.54 600.912Z" fill="#0D0D0D"/>
<path d="M1128.1 454.196V390.173H1144.65V454.196H1128.1ZM1103.89 391.849V377.808H1168.65V391.849H1103.89ZM1182.48 454.196L1161.11 377.808H1177.98L1192.02 436.173H1190.66L1205.43 377.808H1221.25L1235.82 436.173H1234.56L1248.71 377.808H1265.79L1243.99 454.196H1226.07L1212.66 400.651H1214.13L1200.61 454.196H1182.48Z" fill="#0D0D0D"/>
</g>
<defs>
<clipPath id="clip0_90_106">
<rect width="1400" height="700" fill="white" transform="translate(0.808594 0.912109)"/>
</clipPath>
</defs>
</svg>
