<svg width="1901" height="251" viewBox="0 0 1901 251" fill="none" xmlns="http://www.w3.org/2000/svg">
<g clip-path="url(#clip0_88_24)">
<path d="M901.5 247.338L838.062 19.5257H882.75L927.437 200.775H923.062L970.562 19.5257H1013.06L1059.62 200.463H1055.87L1100.56 19.5257H1145.87L1081.5 247.338H1033.37L989.625 76.4007H994.312L949.937 247.338H901.5ZM1211.43 250.463C1193.72 250.463 1178.2 246.609 1164.87 238.9C1151.74 231.192 1141.53 220.463 1134.24 206.713C1127.16 192.755 1123.62 176.609 1123.62 158.276C1123.62 139.526 1127.16 123.276 1134.24 109.526C1141.53 95.7756 1151.74 85.0465 1164.87 77.3382C1178.2 69.6299 1193.82 65.7757 1211.74 65.7757C1229.45 65.7757 1244.87 69.6299 1258 77.3382C1271.11 85.0465 1281.22 95.7756 1288.3 109.526C1295.59 123.276 1299.23 139.526 1299.23 158.276C1299.23 176.609 1295.59 192.755 1288.3 206.713C1281.22 220.463 1271.11 231.192 1258 238.9C1244.87 246.609 1229.34 250.463 1211.43 250.463ZM1211.43 215.15C1225.59 215.15 1236.65 210.15 1244.55 200.15C1252.47 190.15 1256.44 176.088 1256.44 157.963C1256.44 139.838 1252.47 125.88 1244.55 116.088C1236.65 106.088 1225.59 101.088 1211.43 101.088C1197.26 101.088 1186.22 106.088 1178.3 116.088C1170.39 126.088 1166.43 140.046 1166.43 157.963C1166.43 176.088 1170.39 190.15 1178.3 200.15C1186.22 210.15 1197.26 215.15 1211.43 215.15Z" fill="#F2F2F2"/>
<path d="M80.5057 247.337V52.0253H124.256V247.337H80.5057ZM6.13086 57.0253V19.5253H198.318V57.0253H6.13086ZM225.495 250.462C207.786 250.462 192.265 246.608 178.932 238.9C165.807 231.192 155.599 220.463 148.307 206.713C141.224 192.754 137.682 176.608 137.682 158.275C137.682 139.525 141.224 123.275 148.307 109.525C155.599 95.7753 165.807 85.0461 178.932 77.3378C192.265 69.6295 207.89 65.7753 225.807 65.7753C243.515 65.7753 258.932 69.6295 272.057 77.3378C285.182 85.0461 295.286 95.7753 302.369 109.525C309.661 123.275 313.307 139.525 313.307 158.275C313.307 176.608 309.661 192.754 302.369 206.713C295.286 220.463 285.182 231.192 272.057 238.9C258.932 246.608 243.411 250.462 225.495 250.462ZM225.495 215.15C239.661 215.15 250.703 210.15 258.62 200.15C266.536 190.15 270.495 176.088 270.495 157.963C270.495 139.838 266.536 125.879 258.62 116.088C250.703 106.088 239.661 101.088 225.495 101.088C211.328 101.088 200.286 106.088 192.37 116.088C184.453 126.088 180.495 140.046 180.495 157.963C180.495 176.088 184.453 190.15 192.37 200.15C200.286 210.15 211.328 215.15 225.495 215.15ZM446.039 247.337L393.227 163.275L365.414 189.525L365.727 141.4L437.601 68.9003H491.664L419.476 137.963V128.9L497.289 247.337H446.039ZM326.039 247.337V0.462891H369.164V247.337H326.039ZM562.009 250.462C544.717 250.462 529.405 246.921 516.071 239.837C502.738 232.546 492.321 222.025 484.821 208.275C477.321 194.525 473.571 177.858 473.571 158.275C473.571 139.525 477.113 123.275 484.196 109.525C491.28 95.5669 501.28 84.8378 514.196 77.3378C527.321 69.6295 542.842 65.7753 560.759 65.7753C578.675 65.7753 594.092 69.7336 607.009 77.6502C619.925 85.5669 629.613 97.3377 636.071 112.963C642.529 128.379 644.821 147.338 642.946 169.838H508.571V140.463H612.946L598.259 153.275C600.967 136.4 598.78 123.067 591.696 113.275C584.821 103.484 574.3 98.5877 560.134 98.5877C546.592 98.5877 535.759 103.379 527.634 112.963C519.717 122.546 515.759 137.338 515.759 157.338C515.759 177.963 519.821 193.067 527.946 202.65C536.071 212.025 547.634 216.713 562.634 216.713C574.092 216.713 583.363 214.212 590.446 209.212C597.738 204.213 602.321 197.129 604.196 187.963L641.384 197.338C639.092 207.963 634.3 217.233 627.009 225.15C619.717 233.067 610.55 239.317 599.509 243.9C588.467 248.275 575.967 250.462 562.009 250.462ZM657.423 247.337V68.9003H697.111L698.985 93.9002C706.069 84.1086 714.09 77.0253 723.048 72.6503C732.006 68.067 742.527 65.7753 754.61 65.7753C772.735 65.7753 787.319 70.9836 798.36 81.4002C809.61 91.6085 815.235 106.921 815.235 127.338V247.337H772.11V133.588C772.11 124.004 769.402 116.609 763.985 111.4C758.569 105.984 750.548 103.275 739.923 103.275C732.84 103.275 726.277 104.838 720.235 107.963C714.402 111.088 709.715 115.567 706.173 121.4C702.84 127.025 700.965 133.796 700.548 141.713V247.337H657.423Z" fill="#F2F2F2"/>
<path d="M1310.76 247.017V68.5798L1349.02 68.901L1351.32 96.7134C1357.46 86.505 1364.77 79.0051 1373.21 74.2134C1381.92 69.2156 1392.16 66.7156 1403.94 66.7156C1411.62 66.7156 1417.79 67.3406 1422.39 68.5884V108.901H1420.09C1418.03 108.276 1415.47 107.755 1412.41 107.338C1409.58 106.922 1406.5 106.713 1403.18 106.713C1389.36 106.713 1378.07 109.838 1369.37 116.088C1360.93 122.13 1355.81 130.567 1354.01 141.401V247.338L1310.76 247.017Z" fill="#F2F2F2"/>
<path d="M1542.05 247.339L1489.25 163.276L1461.43 189.526L1461.76 141.401L1533.63 68.9014H1587.69L1515.49 137.964V128.901L1593.31 247.339H1542.05ZM1422.06 247.339V0.46395H1465.18V247.339H1422.06Z" fill="#F2F2F2"/>
<path d="M1655.87 250.463C1632.33 250.463 1613.99 245.255 1600.86 234.838C1587.75 224.421 1580.55 210.15 1579.31 192.025L1620.57 187.025C1620.57 197.025 1623.78 205.15 1630.24 211.4C1636.91 217.442 1645.98 220.463 1657.44 220.463C1667.01 220.463 1674.62 218.692 1680.24 215.15C1685.86 211.609 1688.69 205.984 1688.69 198.275C1688.69 193.275 1687.43 189.421 1684.93 186.713C1682.63 183.796 1679.31 181.505 1674.93 179.838C1670.57 177.963 1665.36 176.4 1659.3 175.15C1653.46 173.9 1646.91 172.442 1639.62 170.776C1628.38 168.276 1618.68 164.942 1610.56 160.776C1602.42 156.609 1596.17 151.192 1591.81 144.526C1587.43 137.859 1585.24 129.63 1585.24 119.838C1585.24 108.796 1588.17 99.2131 1594 91.0882C1600.04 82.9632 1608.48 76.7131 1619.31 72.3382C1630.14 67.9632 1642.85 65.7757 1657.44 65.7757C1672.02 65.7757 1684.52 67.859 1694.94 72.0257C1705.55 76.1924 1713.79 82.234 1719.61 90.1506C1725.67 98.0673 1729.09 107.651 1729.94 118.901L1689.32 124.213C1689.32 115.046 1686.49 107.963 1680.87 102.963C1675.25 97.7548 1666.92 95.1506 1655.87 95.1506C1646.91 95.1506 1640.03 97.0256 1635.24 100.776C1630.66 104.317 1628.38 109.005 1628.38 114.838C1628.38 120.046 1630.03 124.213 1633.37 127.338C1636.91 130.463 1642.11 132.963 1648.99 134.838C1656.07 136.713 1664.84 138.796 1675.25 141.088C1683.37 142.755 1690.88 144.838 1697.74 147.338C1704.83 149.63 1710.97 152.755 1716.18 156.713C1721.39 160.671 1725.45 165.776 1728.38 172.025C1731.29 178.067 1732.74 185.775 1732.74 195.15C1732.74 211.609 1726.29 224.942 1713.36 235.15C1700.67 245.359 1681.5 250.463 1655.87 250.463Z" fill="#F2F2F2"/>
<path d="M1755.99 116.463V52.842H1772.44V116.463H1755.99ZM1731.93 54.508V40.5552H1796.28V54.508H1731.93ZM1810.03 116.463L1788.79 40.5552H1805.55L1819.51 98.5531H1818.15L1832.84 40.5552H1848.56L1863.03 98.5531H1861.78L1875.84 40.5552H1892.81L1871.15 116.463H1853.35L1840.02 63.2546H1841.48L1828.05 116.463H1810.03Z" fill="#F2F2F2"/>
</g>
<defs>
<clipPath id="clip0_88_24">
<rect width="1900" height="250" fill="white" transform="translate(0.0449219 0.462891)"/>
</clipPath>
</defs>
</svg>
