<svg width="501" height="500" viewBox="0 0 501 500" fill="none" xmlns="http://www.w3.org/2000/svg">
<path fill-rule="evenodd" clip-rule="evenodd" d="M250.045 0C111.974 0 0.0449219 111.929 0.0449219 250C0.0449219 388.071 111.974 500 250.045 500C388.116 500 500.045 388.071 500.045 250C500.045 111.929 388.116 0 250.045 0ZM404.136 404.091C374.981 433.246 330.342 433.246 250.045 433.246C169.748 433.246 125.109 433.246 95.9539 404.091C66.7988 374.936 66.7989 330.297 66.7989 250C66.7989 169.703 66.7988 125.064 95.9539 95.909C125.109 66.7539 169.748 66.7539 250.045 66.7539C330.342 66.7539 374.981 66.7539 404.136 95.909C433.291 125.064 433.291 169.703 433.291 250C433.291 330.297 433.291 374.936 404.136 404.091Z" fill="#F2F2F2"/>
<path d="M239.263 203.73V130.486H258.204V203.73H239.263ZM211.572 132.404V116.341H285.655V132.404H211.572ZM301.483 203.73L277.029 116.341H296.329L312.392 183.111H310.833L327.736 116.341H345.837L362.5 183.111H361.061L377.244 116.341H396.784L371.85 203.73H351.351L336.007 142.474H337.685L322.222 203.73H301.483Z" fill="#F2F2F2"/>
</svg>
