<svg width="501" height="500" viewBox="0 0 501 500" fill="none" xmlns="http://www.w3.org/2000/svg">
<path fill-rule="evenodd" clip-rule="evenodd" d="M250.955 0C112.884 0 0.955078 111.929 0.955078 250C0.955078 388.071 112.884 500 250.955 500C389.026 500 500.955 388.071 500.955 250C500.955 111.929 389.026 0 250.955 0ZM405.046 404.091C375.891 433.246 331.253 433.246 250.955 433.246C170.658 433.246 126.019 433.246 96.8641 404.091C67.709 374.936 67.709 330.297 67.709 250C67.709 169.703 67.709 125.064 96.8641 95.909C126.019 66.7539 170.658 66.7539 250.955 66.7539C331.253 66.7539 375.891 66.7539 405.046 95.909C434.201 125.064 434.201 169.703 434.201 250C434.201 330.297 434.201 374.936 405.046 404.091Z" fill="#0D0D0D"/>
<path d="M240.174 203.73V130.486H259.114V203.73H240.174ZM212.482 132.404V116.341H286.565V132.404H212.482ZM302.393 203.73L277.939 116.341H297.239L313.302 183.111H311.744L328.646 116.341H346.747L363.41 183.111H361.971L378.154 116.341H397.694L372.76 203.73H352.261L336.917 142.474H338.596L323.132 203.73H302.393Z" fill="#0D0D0D"/>
</svg>
