<svg width="501" height="500" viewBox="0 0 501 500" fill="none" xmlns="http://www.w3.org/2000/svg">
<rect x="0.972656" width="500" height="500" fill="#F2F2F2"/>
<path fill-rule="evenodd" clip-rule="evenodd" d="M250.972 68.2314C150.584 68.2314 69.2031 149.612 69.2031 250C69.2031 350.388 150.584 431.769 250.972 431.769C351.36 431.769 432.74 350.388 432.74 250C432.74 149.612 351.36 68.2314 250.972 68.2314ZM363.007 362.036C341.81 383.234 309.354 383.234 250.972 383.234C192.59 383.234 160.134 383.234 138.936 362.036C117.738 340.838 117.738 308.382 117.738 250C117.738 191.618 117.738 159.162 138.936 137.964C160.134 116.767 192.59 116.767 250.972 116.767C309.354 116.767 341.81 116.767 363.007 137.964C384.205 159.162 384.205 191.618 384.205 250C384.205 308.382 384.205 340.838 363.007 362.036Z" fill="#0D0D0D"/>
<path d="M243.134 216.358V163.104H256.904V216.358H243.134ZM223 164.499V152.819H276.864V164.499H223ZM288.372 216.358L270.592 152.819H284.624L296.303 201.366H295.17L307.46 152.819H320.62L332.735 201.366H331.69L343.456 152.819H357.663L339.534 216.358H324.63L313.473 171.82H314.694L303.45 216.358H288.372Z" fill="#0D0D0D"/>
</svg>
