<svg width="1901" height="251" viewBox="0 0 1901 251" fill="none" xmlns="http://www.w3.org/2000/svg">
<g clip-path="url(#clip0_88_23)">
<path d="M901.5 247.387L838.062 19.5746H882.75L927.437 200.824H923.062L970.562 19.5746H1013.06L1059.62 200.512H1055.87L1100.56 19.5746H1145.87L1081.5 247.387H1033.37L989.625 76.4495H994.312L949.937 247.387H901.5ZM1211.43 250.512C1193.72 250.512 1178.2 246.658 1164.87 238.949C1151.74 231.241 1141.53 220.512 1134.24 206.762C1127.16 192.803 1123.62 176.658 1123.62 158.324C1123.62 139.574 1127.16 123.324 1134.24 109.574C1141.53 95.8245 1151.74 85.0953 1164.87 77.387C1178.2 69.6787 1193.82 65.8245 1211.74 65.8245C1229.45 65.8245 1244.87 69.6787 1258 77.387C1271.11 85.0953 1281.22 95.8245 1288.3 109.574C1295.59 123.324 1299.23 139.574 1299.23 158.324C1299.23 176.658 1295.59 192.803 1288.3 206.762C1281.22 220.512 1271.11 231.241 1258 238.949C1244.87 246.658 1229.34 250.512 1211.43 250.512ZM1211.43 215.199C1225.59 215.199 1236.65 210.199 1244.55 200.199C1252.47 190.199 1256.44 176.137 1256.44 158.012C1256.44 139.887 1252.47 125.929 1244.55 116.137C1236.65 106.137 1225.59 101.137 1211.43 101.137C1197.26 101.137 1186.22 106.137 1178.3 116.137C1170.39 126.137 1166.43 140.095 1166.43 158.012C1166.43 176.137 1170.39 190.199 1178.3 200.199C1186.22 210.199 1197.26 215.199 1211.43 215.199Z" fill="#0D0D0D"/>
<path d="M80.5057 247.386V52.0742H124.256V247.386H80.5057ZM6.13086 57.0741V19.5742H198.318V57.0741H6.13086ZM225.495 250.511C207.786 250.511 192.265 246.657 178.932 238.949C165.807 231.24 155.599 220.511 148.307 206.761C141.224 192.803 137.682 176.657 137.682 158.324C137.682 139.574 141.224 123.324 148.307 109.574C155.599 95.8241 165.807 85.0949 178.932 77.3866C192.265 69.6783 207.89 65.8241 225.807 65.8241C243.515 65.8241 258.932 69.6783 272.057 77.3866C285.182 85.0949 295.286 95.8241 302.369 109.574C309.661 123.324 313.307 139.574 313.307 158.324C313.307 176.657 309.661 192.803 302.369 206.761C295.286 220.511 285.182 231.24 272.057 238.949C258.932 246.657 243.411 250.511 225.495 250.511ZM225.495 215.199C239.661 215.199 250.703 210.199 258.62 200.199C266.536 190.199 270.495 176.136 270.495 158.011C270.495 139.886 266.536 125.928 258.62 116.137C250.703 106.137 239.661 101.137 225.495 101.137C211.328 101.137 200.286 106.137 192.37 116.137C184.453 126.136 180.495 140.095 180.495 158.011C180.495 176.136 184.453 190.199 192.37 200.199C200.286 210.199 211.328 215.199 225.495 215.199ZM446.039 247.386L393.227 163.324L365.414 189.574L365.727 141.449L437.601 68.9491H491.664L419.476 138.011V128.949L497.289 247.386H446.039ZM326.039 247.386V0.511719H369.164V247.386H326.039ZM562.009 250.511C544.717 250.511 529.405 246.97 516.071 239.886C502.738 232.595 492.321 222.074 484.821 208.324C477.321 194.574 473.571 177.907 473.571 158.324C473.571 139.574 477.113 123.324 484.196 109.574C491.28 95.6157 501.28 84.8866 514.196 77.3866C527.321 69.6783 542.842 65.8241 560.759 65.8241C578.675 65.8241 594.092 69.7824 607.009 77.6991C619.925 85.6157 629.613 97.3865 636.071 113.012C642.529 128.428 644.821 147.386 642.946 169.886H508.571V140.511H612.946L598.259 153.324C600.967 136.449 598.78 123.116 591.696 113.324C584.821 103.532 574.3 98.6366 560.134 98.6366C546.592 98.6366 535.759 103.428 527.634 113.012C519.717 122.595 515.759 137.386 515.759 157.386C515.759 178.011 519.821 193.116 527.946 202.699C536.071 212.074 547.634 216.761 562.634 216.761C574.092 216.761 583.363 214.261 590.446 209.261C597.738 204.261 602.321 197.178 604.196 188.011L641.384 197.386C639.092 208.011 634.3 217.282 627.009 225.199C619.717 233.115 610.55 239.365 599.509 243.949C588.467 248.324 575.967 250.511 562.009 250.511ZM657.423 247.386V68.9491H697.111L698.985 93.9491C706.069 84.1574 714.09 77.0741 723.048 72.6991C732.006 68.1158 742.527 65.8241 754.61 65.8241C772.735 65.8241 787.319 71.0324 798.36 81.4491C809.61 91.6574 815.235 106.97 815.235 127.386V247.386H772.11V133.636C772.11 124.053 769.402 116.657 763.985 111.449C758.569 106.032 750.548 103.324 739.923 103.324C732.84 103.324 726.277 104.887 720.235 108.012C714.402 111.137 709.715 115.616 706.173 121.449C702.84 127.074 700.965 133.845 700.548 141.761V247.386H657.423Z" fill="#0D0D0D"/>
<path d="M1310.76 247.066V68.6286L1349.02 68.9498L1351.32 96.7622C1357.46 86.5539 1364.77 79.0539 1373.21 74.2623C1381.92 69.2645 1392.16 66.7644 1403.94 66.7644C1411.62 66.7644 1417.79 67.3894 1422.39 68.6373V108.95H1420.09C1418.03 108.325 1415.47 107.804 1412.41 107.387C1409.58 106.97 1406.5 106.762 1403.18 106.762C1389.36 106.762 1378.07 109.887 1369.37 116.137C1360.93 122.179 1355.81 130.616 1354.01 141.45V247.387L1310.76 247.066Z" fill="#0D0D0D"/>
<path d="M1542.05 247.387L1489.25 163.325L1461.43 189.575L1461.76 141.45L1533.63 68.9502H1587.69L1515.49 138.012V128.95L1593.31 247.387H1542.05ZM1422.06 247.387V0.512778H1465.18V247.387H1422.06Z" fill="#0D0D0D"/>
<path d="M1655.87 250.512C1632.33 250.512 1613.99 245.303 1600.86 234.887C1587.75 224.47 1580.55 210.199 1579.31 192.074L1620.57 187.074C1620.57 197.074 1623.78 205.199 1630.24 211.449C1636.91 217.491 1645.98 220.512 1657.44 220.512C1667.01 220.512 1674.62 218.741 1680.24 215.199C1685.86 211.658 1688.69 206.033 1688.69 198.324C1688.69 193.324 1687.43 189.47 1684.93 186.762C1682.63 183.845 1679.31 181.553 1674.93 179.887C1670.57 178.012 1665.36 176.449 1659.3 175.199C1653.46 173.949 1646.91 172.491 1639.62 170.824C1628.38 168.324 1618.68 164.991 1610.56 160.824C1602.42 156.658 1596.17 151.241 1591.81 144.574C1587.43 137.908 1585.24 129.679 1585.24 119.887C1585.24 108.845 1588.17 99.262 1594 91.137C1600.04 83.012 1608.48 76.762 1619.31 72.387C1630.14 68.012 1642.85 65.8245 1657.44 65.8245C1672.02 65.8245 1684.52 67.9079 1694.94 72.0745C1705.55 76.2412 1713.79 82.2828 1719.61 90.1995C1725.67 98.1161 1729.09 107.699 1729.94 118.949L1689.32 124.262C1689.32 115.095 1686.49 108.012 1680.87 103.012C1675.25 97.8036 1666.92 95.1994 1655.87 95.1994C1646.91 95.1994 1640.03 97.0744 1635.24 100.824C1630.66 104.366 1628.38 109.054 1628.38 114.887C1628.38 120.095 1630.03 124.262 1633.37 127.387C1636.91 130.512 1642.11 133.012 1648.99 134.887C1656.07 136.762 1664.84 138.845 1675.25 141.137C1683.37 142.804 1690.88 144.887 1697.74 147.387C1704.83 149.679 1710.97 152.804 1716.18 156.762C1721.39 160.72 1725.45 165.824 1728.38 172.074C1731.29 178.116 1732.74 185.824 1732.74 195.199C1732.74 211.658 1726.29 224.991 1713.36 235.199C1700.67 245.408 1681.5 250.512 1655.87 250.512Z" fill="#0D0D0D"/>
<path d="M1755.99 116.512V52.8909H1772.44V116.512H1755.99ZM1731.93 54.5569V40.6041H1796.28V54.5569H1731.93ZM1810.03 116.512L1788.79 40.6041H1805.55L1819.51 98.6019H1818.15L1832.84 40.6041H1848.56L1863.03 98.6019H1861.78L1875.84 40.6041H1892.81L1871.15 116.512H1853.35L1840.02 63.3034H1841.48L1828.05 116.512H1810.03Z" fill="#0D0D0D"/>
</g>
<defs>
<clipPath id="clip0_88_23">
<rect width="1900" height="250" fill="white" transform="translate(0.0449219 0.511719)"/>
</clipPath>
</defs>
</svg>
