<svg width="501" height="500" viewBox="0 0 501 500" fill="none" xmlns="http://www.w3.org/2000/svg">
<rect x="0.865234" width="500" height="500" rx="250" fill="#F2F2F2"/>
<path fill-rule="evenodd" clip-rule="evenodd" d="M250.865 0C112.794 0 0.865234 111.929 0.865234 250C0.865234 388.071 112.794 500 250.865 500C388.936 500 500.865 388.071 500.865 250C500.865 111.929 388.936 0 250.865 0ZM404.956 404.091C375.801 433.246 331.163 433.246 250.865 433.246C170.568 433.246 125.929 433.246 96.7742 404.091C67.6192 374.936 67.6192 330.297 67.6192 250C67.6192 169.703 67.6192 125.064 96.7742 95.909C125.929 66.7539 170.568 66.7539 250.865 66.7539C331.163 66.7539 375.801 66.7539 404.956 95.909C434.111 125.064 434.111 169.703 434.111 250C434.111 330.297 434.111 374.936 404.956 404.091Z" fill="#0D0D0D"/>
<path d="M240.084 203.73V130.486H259.024V203.73H240.084ZM212.393 132.404V116.341H286.475V132.404H212.393ZM302.303 203.73L277.849 116.341H297.149L313.212 183.111H311.654L328.556 116.341H346.657L363.32 183.111H361.881L378.065 116.341H397.604L372.67 203.73H352.172L336.827 142.474H338.506L323.042 203.73H302.303Z" fill="#0D0D0D"/>
</svg>
