<svg width="1600" height="801" viewBox="0 0 1600 801" fill="none" xmlns="http://www.w3.org/2000/svg">
<rect y="0.366699" width="1600" height="800" fill="#F2F2F2"/>
<path fill-rule="evenodd" clip-rule="evenodd" d="M800 75.3667C693.772 75.3667 607.658 161.481 607.658 267.708C607.658 373.936 693.772 460.05 800 460.05C906.227 460.05 992.341 373.936 992.341 267.708C992.341 161.481 906.227 75.3667 800 75.3667ZM918.552 386.261C896.121 408.692 861.778 408.692 800 408.692C738.221 408.692 703.878 408.692 681.447 386.261C659.016 363.83 659.016 329.486 659.016 267.708C659.016 205.93 659.016 171.587 681.447 149.156C703.878 126.725 738.221 126.725 800 126.725C861.778 126.725 896.121 126.725 918.552 149.156C940.983 171.587 940.983 205.93 940.983 267.708C940.983 329.486 940.983 363.83 918.552 386.261Z" fill="#0D0D0D"/>
<path d="M791.704 232.111V175.759H806.276V232.111H791.704ZM770.399 177.234V164.876H827.396V177.234H770.399ZM839.574 232.111L820.759 164.876H835.608L847.967 216.247H846.768L859.772 164.876H873.699L886.519 216.247H885.412L897.863 164.876H912.896L893.713 232.111H877.942L866.136 184.982H867.427L855.53 232.111H839.574Z" fill="#0D0D0D"/>
<path d="M825.136 722.917L775.405 544.326H810.437L845.469 686.415H842.039L879.276 544.326H912.593L949.096 686.17H946.156L981.188 544.326H1016.71L966.244 722.917H928.517L894.22 588.913H897.895L863.108 722.917H825.136ZM1068.1 725.367C1054.22 725.367 1042.05 722.345 1031.6 716.302C1021.31 710.26 1013.31 701.849 1007.59 691.07C1002.04 680.127 999.26 667.47 999.26 653.098C999.26 638.399 1002.04 625.66 1007.59 614.881C1013.31 604.102 1021.31 595.691 1031.6 589.648C1042.05 583.605 1054.3 580.584 1068.34 580.584C1082.23 580.584 1094.32 583.605 1104.61 589.648C1114.89 595.691 1122.81 604.102 1128.36 614.881C1134.08 625.66 1136.93 638.399 1136.93 653.098C1136.93 667.47 1134.08 680.127 1128.36 691.07C1122.81 701.849 1114.89 710.26 1104.61 716.302C1094.32 722.345 1082.15 725.367 1068.1 725.367ZM1068.1 697.684C1079.21 697.684 1087.87 693.764 1094.06 685.925C1100.27 678.086 1103.39 667.061 1103.39 652.853C1103.39 638.644 1100.27 627.701 1094.06 620.025C1087.87 612.186 1079.21 608.266 1068.1 608.266C1056.99 608.266 1048.34 612.186 1042.13 620.025C1035.93 627.865 1032.82 638.807 1032.82 652.853C1032.82 667.061 1035.93 678.086 1042.13 685.925C1048.34 693.764 1056.99 697.684 1068.1 697.684Z" fill="#0D0D0D"/>
<path d="M181.528 722.917V569.804H215.825V722.917H181.528ZM123.223 573.724V544.326H273.885V573.724H123.223ZM295.19 725.366C281.308 725.366 269.141 722.345 258.688 716.302C248.399 710.259 240.396 701.848 234.68 691.069C229.127 680.127 226.351 667.469 226.351 653.097C226.351 638.398 229.127 625.66 234.68 614.88C240.396 604.101 248.399 595.69 258.688 589.647C269.141 583.605 281.39 580.583 295.435 580.583C309.317 580.583 321.403 583.605 331.692 589.647C341.981 595.69 349.902 604.101 355.455 614.88C361.171 625.66 364.029 638.398 364.029 653.097C364.029 667.469 361.171 680.127 355.455 691.069C349.902 701.848 341.981 710.259 331.692 716.302C321.403 722.345 309.236 725.366 295.19 725.366ZM295.19 697.684C306.296 697.684 314.952 693.764 321.158 685.925C327.364 678.085 330.467 667.061 330.467 652.852C330.467 638.643 327.364 627.701 321.158 620.025C314.952 612.186 306.296 608.266 295.19 608.266C284.084 608.266 275.428 612.186 269.222 620.025C263.016 627.864 259.913 638.807 259.913 652.852C259.913 667.061 263.016 678.085 269.222 685.925C275.428 693.764 284.084 697.684 295.19 697.684ZM468.083 722.917L426.681 657.017L404.878 677.595L405.123 639.868L461.468 583.033H503.85L447.26 637.174V630.069L508.26 722.917H468.083ZM374.011 722.917V529.382H407.818V722.917H374.011ZM558.996 725.366C545.441 725.366 533.436 722.59 522.984 717.037C512.531 711.321 504.365 703.073 498.486 692.294C492.606 681.515 489.667 668.449 489.667 653.097C489.667 638.398 492.443 625.66 497.996 614.88C503.549 603.938 511.388 595.527 521.514 589.647C531.803 583.605 543.971 580.583 558.016 580.583C572.062 580.583 584.147 583.686 594.273 589.892C604.399 596.099 611.993 605.326 617.056 617.575C622.119 629.661 623.916 644.523 622.446 662.162H517.104V639.133H598.928L587.414 649.178C589.537 635.949 587.822 625.496 582.269 617.82C576.88 610.144 568.632 606.306 557.526 606.306C546.91 606.306 538.418 610.062 532.048 617.575C525.842 625.088 522.739 636.684 522.739 652.362C522.739 668.531 525.924 680.372 532.293 687.884C538.663 695.234 547.727 698.909 559.486 698.909C568.469 698.909 575.736 696.949 581.289 693.029C587.005 689.109 590.599 683.556 592.068 676.37L621.221 683.72C619.424 692.049 615.668 699.317 609.952 705.523C604.236 711.729 597.05 716.629 588.394 720.222C579.738 723.651 569.939 725.366 558.996 725.366ZM633.795 722.917V583.033H664.907L666.377 602.631C671.93 594.955 678.218 589.402 685.241 585.973C692.263 582.38 700.511 580.583 709.984 580.583C724.193 580.583 735.625 584.666 744.281 592.832C753.1 600.835 757.51 612.839 757.51 628.844V722.917H723.703V633.744C723.703 626.231 721.579 620.433 717.333 616.35C713.087 612.104 706.799 609.981 698.47 609.981C692.917 609.981 687.772 611.206 683.036 613.655C678.463 616.105 674.788 619.617 672.012 624.19C669.399 628.599 667.929 633.907 667.602 640.113V722.917H633.795Z" fill="#0D0D0D"/>
<path d="M1145.97 722.665V582.782L1175.96 583.034L1177.76 604.837C1182.58 596.834 1188.31 590.955 1194.93 587.198C1201.75 583.28 1209.78 581.32 1219.02 581.32C1225.04 581.32 1229.87 581.81 1233.48 582.789V614.391H1231.68C1230.06 613.901 1228.05 613.493 1225.65 613.166C1223.44 612.839 1221.03 612.676 1218.42 612.676C1207.59 612.676 1198.74 615.126 1191.92 620.025C1185.3 624.762 1181.29 631.376 1179.87 639.869V722.917L1145.97 722.665Z" fill="#0D0D0D"/>
<path d="M1327.29 722.917L1285.9 657.018L1264.09 677.596L1264.34 639.869L1320.69 583.034H1363.06L1306.46 637.174V630.07L1367.47 722.917H1327.29ZM1233.22 722.917V529.383H1267.03V722.917H1233.22Z" fill="#0D0D0D"/>
<path d="M1416.52 725.367C1398.06 725.367 1383.68 721.284 1373.39 713.118C1363.12 704.952 1357.47 693.764 1356.5 679.555L1388.84 675.636C1388.84 683.475 1391.36 689.845 1396.43 694.744C1401.65 699.48 1408.76 701.849 1417.74 701.849C1425.24 701.849 1431.22 700.46 1435.62 697.684C1440.03 694.908 1442.24 690.498 1442.24 684.455C1442.24 680.535 1441.25 677.514 1439.3 675.391C1437.49 673.104 1434.89 671.308 1431.45 670.001C1428.03 668.531 1423.95 667.306 1419.21 666.327C1414.63 665.347 1409.49 664.203 1403.78 662.897C1394.96 660.937 1387.36 658.324 1381 655.057C1374.62 651.791 1369.72 647.545 1366.3 642.318C1362.86 637.092 1361.14 630.641 1361.14 622.965C1361.14 614.309 1363.44 606.796 1368.01 600.427C1372.74 594.057 1379.36 589.158 1387.85 585.728C1396.34 582.298 1406.31 580.584 1417.74 580.584C1429.17 580.584 1438.97 582.217 1447.14 585.483C1455.46 588.75 1461.92 593.486 1466.48 599.692C1471.23 605.898 1473.92 613.411 1474.58 622.23L1442.73 626.395C1442.73 619.209 1440.52 613.656 1436.12 609.736C1431.71 605.653 1425.18 603.612 1416.52 603.612C1409.49 603.612 1404.1 605.081 1400.34 608.021C1396.75 610.798 1394.96 614.472 1394.96 619.045C1394.96 623.128 1396.26 626.395 1398.88 628.845C1401.65 631.294 1405.73 633.254 1411.12 634.724C1416.67 636.194 1423.54 637.827 1431.71 639.624C1438.07 640.93 1443.96 642.563 1449.33 644.523C1454.9 646.32 1459.71 648.77 1463.8 651.873C1467.88 654.976 1471.06 658.977 1473.36 663.877C1475.64 668.613 1476.78 674.656 1476.78 682.005C1476.78 694.908 1471.72 705.36 1461.58 713.363C1451.63 721.365 1436.61 725.367 1416.52 725.367Z" fill="#0D0D0D"/>
</svg>
