<svg width="1501" height="751" viewBox="0 0 1501 751" fill="none" xmlns="http://www.w3.org/2000/svg">
<path fill-rule="evenodd" clip-rule="evenodd" d="M750.956 21.1641C635.212 21.1641 541.384 114.993 541.384 230.736C541.384 346.48 635.212 440.309 750.956 440.309C866.699 440.309 960.528 346.48 960.528 230.736C960.528 114.993 866.699 21.1641 750.956 21.1641ZM880.129 359.909C855.688 384.35 818.268 384.35 750.956 384.35C683.643 384.35 646.223 384.35 621.783 359.909C597.343 335.469 597.343 298.049 597.343 230.736C597.343 163.424 597.343 126.004 621.783 101.564C646.223 77.1232 683.643 77.1232 750.956 77.1232C818.268 77.1232 855.688 77.1232 880.129 101.564C904.569 126.004 904.569 163.424 904.569 230.736C904.569 298.049 904.569 335.469 880.129 359.909Z" fill="#F2F2F2"/>
<path d="M741.917 191.95V130.55H757.794V191.95H741.917ZM718.703 132.158V118.692H780.807V132.158H718.703ZM794.076 191.95L773.576 118.692H789.755L803.22 174.665H801.914L816.083 118.692H831.258L845.226 174.665H844.02L857.586 118.692H873.967L853.064 191.95H835.88L823.017 140.599H824.424L811.461 191.95H794.076Z" fill="#F2F2F2"/>
<path d="M778.344 726.724L724.158 532.135H762.328L800.499 686.952H796.762L837.334 532.135H873.636L913.408 686.685H910.205L948.376 532.135H987.08L932.093 726.724H890.987L853.617 580.716H857.621L819.717 726.724H778.344ZM1043.07 729.394C1027.95 729.394 1014.69 726.101 1003.3 719.517C992.09 712.933 983.371 703.769 977.143 692.024C971.092 680.101 968.067 666.31 968.067 650.65C968.067 634.635 971.092 620.755 977.143 609.01C983.371 597.265 992.09 588.101 1003.3 581.516C1014.69 574.932 1028.04 571.64 1043.34 571.64C1058.47 571.64 1071.64 574.932 1082.85 581.516C1094.05 588.101 1102.69 597.265 1108.73 609.01C1114.96 620.755 1118.07 634.635 1118.07 650.65C1118.07 666.31 1114.96 680.101 1108.73 692.024C1102.69 703.769 1094.05 712.933 1082.85 719.517C1071.64 726.101 1058.38 729.394 1043.07 729.394ZM1043.07 699.231C1055.17 699.231 1064.61 694.96 1071.36 686.418C1078.13 677.877 1081.52 665.865 1081.52 650.383C1081.52 634.902 1078.13 622.979 1071.36 614.615C1064.61 606.074 1055.17 601.803 1043.07 601.803C1030.97 601.803 1021.54 606.074 1014.78 614.615C1008.02 623.157 1004.64 635.08 1004.64 650.383C1004.64 665.865 1008.02 677.877 1014.78 686.418C1021.54 694.96 1030.97 699.231 1043.07 699.231Z" fill="#F2F2F2"/>
<path d="M77.0792 726.724V559.895H114.449V726.724H77.0792ZM13.5508 564.166V532.135H177.71V564.166H13.5508ZM200.924 729.393C185.798 729.393 172.541 726.101 161.152 719.517C149.941 712.933 141.221 703.768 134.993 692.024C128.943 680.101 125.917 666.31 125.917 650.65C125.917 634.634 128.943 620.754 134.993 609.009C141.221 597.265 149.941 588.1 161.152 581.516C172.541 574.932 185.887 571.64 201.191 571.64C216.316 571.64 229.485 574.932 240.696 581.516C251.907 588.1 260.537 597.265 266.587 609.009C272.816 620.754 275.93 634.634 275.93 650.65C275.93 666.31 272.816 680.101 266.587 692.024C260.537 703.768 251.907 712.933 240.696 719.517C229.485 726.101 216.227 729.393 200.924 729.393ZM200.924 699.231C213.024 699.231 222.456 694.96 229.218 686.418C235.98 677.876 239.361 665.865 239.361 650.383C239.361 634.901 235.98 622.979 229.218 614.615C222.456 606.073 213.024 601.802 200.924 601.802C188.823 601.802 179.392 606.073 172.63 614.615C165.867 623.157 162.486 635.079 162.486 650.383C162.486 665.865 165.867 677.876 172.63 686.418C179.392 694.96 188.823 699.231 200.924 699.231ZM389.305 726.724L344.194 654.921L320.438 677.343L320.705 636.236L382.098 574.309H428.276L366.616 633.3V625.559L433.081 726.724H389.305ZM286.805 726.724V515.852H323.641V726.724H286.805ZM488.362 729.393C473.592 729.393 460.513 726.368 449.124 720.318C437.735 714.089 428.838 705.103 422.432 693.358C416.025 681.613 412.822 667.377 412.822 650.65C412.822 634.634 415.847 620.754 421.898 609.009C427.948 597.087 436.49 587.922 447.523 581.516C458.734 574.932 471.991 571.64 487.295 571.64C502.598 571.64 515.767 575.021 526.8 581.783C537.833 588.545 546.107 598.599 551.624 611.946C557.14 625.114 559.098 641.308 557.496 660.526H442.718V635.435H531.871L519.326 646.379C521.639 631.965 519.771 620.576 513.72 612.213C507.848 603.849 498.861 599.667 486.761 599.667C475.194 599.667 465.941 603.76 459 611.946C452.238 620.131 448.857 632.766 448.857 649.849C448.857 667.466 452.327 680.368 459.267 688.553C466.207 696.561 476.084 700.565 488.896 700.565C498.683 700.565 506.602 698.43 512.653 694.159C518.881 689.888 522.796 683.838 524.397 676.008L556.162 684.016C554.204 693.091 550.111 701.01 543.883 707.772C537.655 714.534 529.825 719.873 520.393 723.788C510.962 727.525 500.285 729.393 488.362 729.393ZM569.862 726.724V574.309H603.762L605.363 595.663C611.413 587.299 618.265 581.249 625.916 577.512C633.568 573.597 642.555 571.64 652.876 571.64C668.358 571.64 680.814 576.089 690.246 584.986C699.855 593.706 704.66 606.785 704.66 624.224V726.724H667.824V629.563C667.824 621.377 665.51 615.06 660.884 610.611C656.257 605.984 649.406 603.671 640.33 603.671C634.28 603.671 628.675 605.006 623.514 607.675C618.531 610.344 614.528 614.17 611.502 619.153C608.655 623.957 607.054 629.741 606.698 636.503V726.724H569.862Z" fill="#F2F2F2"/>
<path d="M1127.92 726.45V574.035L1160.6 574.31L1162.56 598.066C1167.81 589.346 1174.05 582.94 1181.26 578.847C1188.7 574.578 1197.45 572.443 1207.51 572.443C1214.07 572.443 1219.34 572.977 1223.27 574.043V608.476H1221.3C1219.54 607.942 1217.36 607.497 1214.74 607.141C1212.33 606.786 1209.7 606.608 1206.86 606.608C1195.06 606.608 1185.42 609.277 1177.98 614.615C1170.77 619.776 1166.4 626.983 1164.86 636.237V726.725L1127.92 726.45Z" fill="#F2F2F2"/>
<path d="M1325.48 726.725L1280.38 654.922L1256.62 677.343L1256.89 636.237L1318.29 574.31H1364.46L1302.79 633.301V625.56L1369.26 726.725H1325.48ZM1222.99 726.725V515.853H1259.82V726.725H1222.99Z" fill="#F2F2F2"/>
<path d="M1422.7 729.394C1402.59 729.394 1386.93 724.945 1375.71 716.047C1364.52 707.15 1358.36 694.96 1357.31 679.478L1392.54 675.207C1392.54 683.749 1395.29 690.689 1400.81 696.028C1406.5 701.188 1414.25 703.769 1424.04 703.769C1432.21 703.769 1438.72 702.256 1443.52 699.231C1448.32 696.206 1450.73 691.401 1450.73 684.817C1450.73 680.546 1449.66 677.254 1447.52 674.941C1445.56 672.449 1442.72 670.492 1438.98 669.068C1435.25 667.467 1430.8 666.132 1425.63 665.064C1420.65 663.997 1415.05 662.751 1408.82 661.327C1399.22 659.192 1390.93 656.345 1384 652.786C1377.05 649.227 1371.71 644.6 1367.98 638.905C1364.24 633.211 1362.37 626.182 1362.37 617.818C1362.37 608.387 1364.87 600.201 1369.86 593.261C1375.01 586.321 1382.22 580.983 1391.47 577.246C1400.72 573.509 1411.58 571.64 1424.04 571.64C1436.49 571.64 1447.17 573.42 1456.07 576.979C1465.13 580.538 1472.18 585.698 1477.15 592.46C1482.32 599.222 1485.25 607.408 1485.97 617.018L1451.27 621.555C1451.27 613.725 1448.86 607.675 1444.06 603.404C1439.26 598.956 1432.14 596.731 1422.7 596.731C1415.05 596.731 1409.17 598.333 1405.08 601.536C1401.16 604.561 1399.22 608.565 1399.22 613.548C1399.22 617.996 1400.63 621.555 1403.48 624.225C1406.5 626.894 1410.95 629.029 1416.83 630.631C1422.87 632.232 1430.36 634.012 1439.26 635.969C1446.19 637.393 1452.6 639.172 1458.46 641.308C1464.52 643.265 1469.77 645.935 1474.22 649.316C1478.67 652.697 1482.13 657.057 1484.63 662.395C1487.12 667.556 1488.36 674.14 1488.36 682.148C1488.36 696.206 1482.85 707.595 1471.81 716.314C1460.96 725.034 1444.6 729.394 1422.7 729.394Z" fill="#F2F2F2"/>
</svg>
