<svg width="525" height="490" viewBox="0 0 525 490" fill="none" xmlns="http://www.w3.org/2000/svg">
<rect x="0.807617" width="524.181" height="489.187" fill="#0D0D0D"/>
<path fill-rule="evenodd" clip-rule="evenodd" d="M262.898 62.8242C162.51 62.8242 81.1289 144.205 81.1289 244.593C81.1289 344.981 162.51 426.362 262.898 426.362C363.286 426.362 444.666 344.981 444.666 244.593C444.666 144.205 363.286 62.8242 262.898 62.8242ZM374.933 356.629C353.735 377.826 321.28 377.826 262.898 377.826C204.515 377.826 172.06 377.826 150.862 356.629C129.664 335.431 129.664 302.975 129.664 244.593C129.664 186.211 129.664 153.755 150.862 132.557C172.06 111.359 204.515 111.359 262.898 111.359C321.28 111.359 353.735 111.359 374.933 132.557C396.131 153.755 396.131 186.211 396.131 244.593C396.131 302.975 396.131 335.431 374.933 356.629Z" fill="#F2F2F2"/>
<path d="M255.059 210.95V157.697H268.83V210.95H255.059ZM234.926 159.091V147.412H288.789V159.091H234.926ZM300.298 210.95L282.517 147.412H296.55L308.229 195.959H307.096L319.385 147.412H332.546L344.661 195.959H343.615L355.382 147.412H369.588L351.46 210.95H336.556L325.399 166.413H326.619L315.376 210.95H300.298Z" fill="#F2F2F2"/>
</svg>
