<svg width="2100" height="401" viewBox="0 0 2100 401" fill="none" xmlns="http://www.w3.org/2000/svg">
<rect y="0.974121" width="2100" height="400" fill="#F2F2F2"/>
<path d="M1002.03 322.849L938.592 95.037H983.279L1027.97 276.287H1023.59L1071.09 95.037H1113.59L1160.15 275.974H1156.4L1201.09 95.037H1246.4L1182.03 322.849H1133.9L1090.15 151.912H1094.84L1050.47 322.849H1002.03ZM1311.96 325.974C1294.25 325.974 1278.73 322.12 1265.39 314.412C1252.27 306.703 1242.06 295.974 1234.77 282.224C1227.69 268.266 1224.14 252.12 1224.14 233.787C1224.14 215.037 1227.69 198.787 1234.77 185.037C1242.06 171.287 1252.27 160.558 1265.39 152.849C1278.73 145.141 1294.35 141.287 1312.27 141.287C1329.98 141.287 1345.4 145.141 1358.53 152.849C1371.64 160.558 1381.75 171.287 1388.83 185.037C1396.12 198.787 1399.76 215.037 1399.76 233.787C1399.76 252.12 1396.12 268.266 1388.83 282.224C1381.75 295.974 1371.64 306.703 1358.53 314.412C1345.4 322.12 1329.87 325.974 1311.96 325.974ZM1311.96 290.662C1326.12 290.662 1337.18 285.662 1345.08 275.662C1353 265.662 1356.97 251.599 1356.97 233.474C1356.97 215.349 1353 201.391 1345.08 191.599C1337.18 181.599 1326.12 176.599 1311.96 176.599C1297.79 176.599 1286.75 181.599 1278.83 191.599C1270.92 201.599 1266.96 215.558 1266.96 233.474C1266.96 251.599 1270.92 265.662 1278.83 275.662C1286.75 285.662 1297.79 290.662 1311.96 290.662Z" fill="#0D0D0D"/>
<path d="M181.035 322.849V127.537H224.785V322.849H181.035ZM106.66 132.537V95.0366H298.847V132.537H106.66ZM326.024 325.974C308.316 325.974 292.795 322.12 279.461 314.411C266.336 306.703 256.128 295.974 248.837 282.224C241.753 268.265 238.212 252.12 238.212 233.786C238.212 215.036 241.753 198.786 248.837 185.036C256.128 171.286 266.336 160.557 279.461 152.849C292.795 145.141 308.42 141.287 326.336 141.287C344.045 141.287 359.461 145.141 372.586 152.849C385.711 160.557 395.815 171.286 402.899 185.036C410.19 198.786 413.836 215.036 413.836 233.786C413.836 252.12 410.19 268.265 402.899 282.224C395.815 295.974 385.711 306.703 372.586 314.411C359.461 322.12 343.941 325.974 326.024 325.974ZM326.024 290.661C340.191 290.661 351.232 285.661 359.149 275.661C367.066 265.661 371.024 251.599 371.024 233.474C371.024 215.349 367.066 201.391 359.149 191.599C351.232 181.599 340.191 176.599 326.024 176.599C311.857 176.599 300.816 181.599 292.899 191.599C284.982 201.599 281.024 215.557 281.024 233.474C281.024 251.599 284.982 265.661 292.899 275.661C300.816 285.661 311.857 290.661 326.024 290.661ZM546.568 322.849L493.756 238.786L465.943 265.036L466.256 216.911L538.131 144.412H592.193L520.006 213.474V204.411L597.818 322.849H546.568ZM426.568 322.849V75.9741H469.693V322.849H426.568ZM662.538 325.974C645.246 325.974 629.934 322.432 616.601 315.349C603.267 308.057 592.851 297.536 585.351 283.786C577.851 270.036 574.101 253.37 574.101 233.786C574.101 215.036 577.642 198.786 584.726 185.036C591.809 171.078 601.809 160.349 614.726 152.849C627.851 145.141 643.371 141.287 661.288 141.287C679.205 141.287 694.621 145.245 707.538 153.161C720.455 161.078 730.142 172.849 736.6 188.474C743.059 203.891 745.35 222.849 743.475 245.349H609.101V215.974H713.475L698.788 228.786C701.496 211.911 699.309 198.578 692.226 188.786C685.351 178.995 674.83 174.099 660.663 174.099C647.121 174.099 636.288 178.891 628.163 188.474C620.246 198.057 616.288 212.849 616.288 232.849C616.288 253.474 620.351 268.578 628.476 278.161C636.601 287.536 648.163 292.224 663.163 292.224C674.621 292.224 683.892 289.724 690.976 284.724C698.267 279.724 702.851 272.64 704.726 263.474L741.913 272.849C739.621 283.474 734.83 292.745 727.538 300.661C720.246 308.578 711.08 314.828 700.038 319.411C688.996 323.786 676.496 325.974 662.538 325.974ZM757.952 322.849V144.412H797.64L799.515 169.411C806.598 159.62 814.619 152.537 823.577 148.162C832.536 143.578 843.056 141.287 855.14 141.287C873.265 141.287 887.848 146.495 898.89 156.911C910.14 167.12 915.765 182.432 915.765 202.849V322.849H872.64V209.099C872.64 199.516 869.931 192.12 864.515 186.911C859.098 181.495 851.077 178.786 840.452 178.786C833.369 178.786 826.806 180.349 820.765 183.474C814.931 186.599 810.244 191.078 806.702 196.911C803.369 202.536 801.494 209.307 801.077 217.224V322.849H757.952Z" fill="#0D0D0D"/>
<path d="M1411.29 322.528V144.091L1449.55 144.412L1451.85 172.225C1457.99 162.016 1465.3 154.516 1473.74 149.725C1482.44 144.727 1492.69 142.227 1504.47 142.227C1512.15 142.227 1518.32 142.852 1522.92 144.1V184.412H1520.62C1518.56 183.787 1515.99 183.266 1512.93 182.85C1510.11 182.433 1507.03 182.225 1503.71 182.225C1489.89 182.225 1478.6 185.35 1469.9 191.6C1461.46 197.641 1456.34 206.079 1454.54 216.912V322.849L1411.29 322.528Z" fill="#0D0D0D"/>
<path d="M1642.58 322.85L1589.78 238.787L1561.96 265.037L1562.28 216.912L1634.16 144.413H1688.22L1616.02 213.475V204.412L1693.84 322.85H1642.58ZM1522.59 322.85V75.9752H1565.71V322.85H1522.59Z" fill="#0D0D0D"/>
<path d="M1756.4 325.974C1732.86 325.974 1714.52 320.766 1701.39 310.349C1688.28 299.932 1681.08 285.662 1679.84 267.537L1721.09 262.537C1721.09 272.537 1724.31 280.662 1730.77 286.912C1737.44 292.953 1746.51 295.974 1757.97 295.974C1767.54 295.974 1775.15 294.203 1780.77 290.662C1786.39 287.12 1789.22 281.495 1789.22 273.787C1789.22 268.787 1787.96 264.933 1785.46 262.224C1783.16 259.308 1779.84 257.016 1775.46 255.349C1771.09 253.474 1765.89 251.912 1759.83 250.662C1753.99 249.412 1747.44 247.953 1740.15 246.287C1728.91 243.787 1719.21 240.453 1711.09 236.287C1702.95 232.12 1696.7 226.703 1692.34 220.037C1687.96 213.37 1685.77 205.141 1685.77 195.349C1685.77 184.308 1688.69 174.724 1694.53 166.599C1700.57 158.474 1709.01 152.224 1719.84 147.849C1730.67 143.474 1743.38 141.287 1757.97 141.287C1772.55 141.287 1785.05 143.37 1795.47 147.537C1806.08 151.704 1814.32 157.745 1820.14 165.662C1826.19 173.579 1829.62 183.162 1830.47 194.412L1789.84 199.724C1789.84 190.558 1787.02 183.474 1781.4 178.474C1775.78 173.266 1767.45 170.662 1756.4 170.662C1747.44 170.662 1740.56 172.537 1735.77 176.287C1731.19 179.829 1728.91 184.516 1728.91 190.349C1728.91 195.558 1730.56 199.724 1733.9 202.849C1737.44 205.974 1742.64 208.474 1749.52 210.349C1756.6 212.224 1765.37 214.308 1775.78 216.599C1783.9 218.266 1791.41 220.349 1798.26 222.849C1805.36 225.141 1811.5 228.266 1816.71 232.224C1821.92 236.183 1825.98 241.287 1828.91 247.537C1831.82 253.578 1833.27 261.287 1833.27 270.662C1833.27 287.12 1826.82 300.453 1813.89 310.662C1801.19 320.87 1782.03 325.974 1756.4 325.974Z" fill="#0D0D0D"/>
<path d="M1856.52 191.974V128.353H1872.97V191.974H1856.52ZM1832.46 130.019V116.066H1896.81V130.019H1832.46ZM1910.56 191.974L1889.32 116.066H1906.08L1920.04 174.064H1918.68L1933.37 116.066H1949.09L1963.56 174.064H1962.31L1976.37 116.066H1993.34L1971.68 191.974H1953.88L1940.55 138.766H1942.01L1928.58 191.974H1910.56Z" fill="#0D0D0D"/>
</svg>
