<svg width="1561" height="301" viewBox="0 0 1561 301" fill="none" xmlns="http://www.w3.org/2000/svg">
<path fill-rule="evenodd" clip-rule="evenodd" d="M153.941 0.824219C71.0987 0.824219 3.94141 67.9815 3.94141 150.824C3.94141 233.667 71.0987 300.824 153.941 300.824C236.784 300.824 303.941 233.667 303.941 150.824C303.941 67.9815 236.784 0.824219 153.941 0.824219ZM246.396 243.279C228.903 260.772 202.12 260.772 153.941 260.772C105.763 260.772 78.9799 260.772 61.4868 243.279C43.9938 225.786 43.9938 199.003 43.9938 150.824C43.9938 102.646 43.9938 75.8627 61.4868 58.3696C78.9799 40.8766 105.763 40.8766 153.941 40.8766C202.12 40.8766 228.903 40.8766 246.396 58.3696C263.889 75.8627 263.889 102.646 263.889 150.824C263.889 199.003 263.889 225.786 246.396 243.279Z" fill="#0D0D0D"/>
<path d="M147.472 123.063V79.1162H158.836V123.063H147.472ZM130.857 80.2671V70.629H175.307V80.2671H130.857ZM184.804 123.063L170.131 70.629H181.711L191.349 110.692H190.414L200.556 70.629H211.417L221.415 110.692H220.552L230.262 70.629H241.985L227.025 123.063H214.725L205.519 86.3089H206.526L197.247 123.063H184.804Z" fill="#0D0D0D"/>
<path d="M986.289 235.102L942.469 77.7376H973.337L1004.21 202.938H1001.18L1033.99 77.7376H1063.35L1095.52 202.722H1092.93L1123.79 77.7376H1155.09L1110.63 235.102H1077.38L1047.16 117.025H1050.4L1019.75 235.102H986.289ZM1200.38 237.26C1188.14 237.26 1177.42 234.598 1168.21 229.273C1159.15 223.949 1152.09 216.538 1147.06 207.04C1142.16 197.398 1139.72 186.245 1139.72 173.581C1139.72 160.629 1142.16 149.404 1147.06 139.906C1152.09 130.408 1159.15 122.997 1168.21 117.672C1177.42 112.348 1188.22 109.685 1200.59 109.685C1212.82 109.685 1223.48 112.348 1232.55 117.672C1241.6 122.997 1248.59 130.408 1253.47 139.906C1258.51 149.404 1261.03 160.629 1261.03 173.581C1261.03 186.245 1258.51 197.398 1253.47 207.04C1248.59 216.538 1241.6 223.949 1232.55 229.273C1223.48 234.598 1212.75 237.26 1200.38 237.26ZM1200.38 212.868C1210.16 212.868 1217.8 209.414 1223.25 202.506C1228.72 195.599 1231.47 185.885 1231.47 173.365C1231.47 160.845 1228.72 151.203 1223.25 144.439C1217.8 137.532 1210.16 134.078 1200.38 134.078C1190.59 134.078 1182.96 137.532 1177.49 144.439C1172.03 151.347 1169.29 160.989 1169.29 173.365C1169.29 185.885 1172.03 195.599 1177.49 202.506C1182.96 209.414 1190.59 212.868 1200.38 212.868Z" fill="#0D0D0D"/>
<path d="M419.177 235.102V100.187H449.398V235.102H419.177ZM367.802 103.641V77.7373H500.557V103.641H367.802ZM519.33 237.26C507.098 237.26 496.376 234.598 487.166 229.273C478.1 223.949 471.048 216.537 466.012 207.039C461.119 197.397 458.672 186.245 458.672 173.581C458.672 160.629 461.119 149.404 466.012 139.906C471.048 130.408 478.1 122.997 487.166 117.672C496.376 112.347 507.17 109.685 519.546 109.685C531.778 109.685 542.427 112.347 551.493 117.672C560.56 122.997 567.539 130.408 572.432 139.906C577.469 149.404 579.987 160.629 579.987 173.581C579.987 186.245 577.469 197.397 572.432 207.039C567.539 216.537 560.56 223.949 551.493 229.273C542.427 234.598 531.706 237.26 519.33 237.26ZM519.33 212.868C529.116 212.868 536.743 209.414 542.211 202.506C547.68 195.599 550.414 185.885 550.414 173.365C550.414 160.845 547.68 151.203 542.211 144.439C536.743 137.531 529.116 134.078 519.33 134.078C509.544 134.078 501.917 137.531 496.448 144.439C490.98 151.347 488.246 160.989 488.246 173.365C488.246 185.885 490.98 195.599 496.448 202.506C501.917 209.414 509.544 212.868 519.33 212.868ZM671.674 235.102L635.193 177.034L615.981 195.167L616.197 161.924L665.845 111.844H703.19L653.325 159.549V153.289L707.075 235.102H671.674ZM588.782 235.102V64.5697H618.571V235.102H588.782ZM751.781 237.26C739.837 237.26 729.26 234.814 720.049 229.921C710.839 224.884 703.644 217.617 698.463 208.119C693.282 198.621 690.692 187.108 690.692 173.581C690.692 160.629 693.139 149.404 698.031 139.906C702.924 130.264 709.832 122.853 718.754 117.672C727.82 112.347 738.542 109.685 750.918 109.685C763.294 109.685 773.943 112.419 782.866 117.888C791.788 123.356 798.48 131.487 802.941 142.28C807.402 152.93 808.985 166.025 807.69 181.567H714.869V161.276H786.967L776.821 170.127C778.692 158.47 777.181 149.26 772.288 142.496C767.539 135.733 760.272 132.351 750.486 132.351C741.132 132.351 733.649 135.661 728.036 142.28C722.568 148.9 719.834 159.118 719.834 172.933C719.834 187.18 722.64 197.613 728.252 204.233C733.865 210.709 741.852 213.947 752.213 213.947C760.128 213.947 766.532 212.22 771.425 208.766C776.462 205.312 779.628 200.419 780.923 194.088L806.611 200.563C805.028 207.903 801.718 214.307 796.681 219.775C791.644 225.244 785.312 229.561 777.685 232.727C770.058 235.749 761.423 237.26 751.781 237.26ZM817.69 235.102V111.844H845.105L846.4 129.113C851.293 122.349 856.833 117.456 863.021 114.434C869.209 111.268 876.477 109.685 884.823 109.685C897.343 109.685 907.417 113.283 915.044 120.478C922.815 127.53 926.701 138.107 926.701 152.21V235.102H896.912V156.527C896.912 149.908 895.041 144.799 891.299 141.201C887.558 137.459 882.017 135.589 874.678 135.589C869.785 135.589 865.252 136.668 861.078 138.827C857.049 140.985 853.811 144.079 851.365 148.109C849.062 151.994 847.767 156.671 847.479 162.14V235.102H817.69Z" fill="#0D0D0D"/>
<path d="M1268.99 234.88V111.622L1295.42 111.844L1297.01 131.056C1301.25 124.004 1306.3 118.824 1312.13 115.514C1318.14 112.062 1325.22 110.335 1333.36 110.335C1338.66 110.335 1342.92 110.766 1346.1 111.628V139.475H1344.51C1343.09 139.043 1341.32 138.683 1339.2 138.395C1337.26 138.107 1335.13 137.964 1332.83 137.964C1323.28 137.964 1315.49 140.122 1309.48 144.439C1303.65 148.613 1300.11 154.441 1298.86 161.924V235.102L1268.99 234.88Z" fill="#0D0D0D"/>
<path d="M1428.76 235.102L1392.29 177.035L1373.07 195.168L1373.29 161.925L1422.94 111.844H1460.28L1410.41 159.55V153.29L1464.16 235.102H1428.76ZM1345.88 235.102V64.5704H1375.66V235.102H1345.88Z" fill="#0D0D0D"/>
<path d="M1507.38 237.26C1491.12 237.26 1478.45 233.663 1469.38 226.467C1460.33 219.272 1455.35 209.414 1454.5 196.894L1482.99 193.44C1482.99 200.348 1485.21 205.96 1489.68 210.278C1494.28 214.451 1500.55 216.538 1508.46 216.538C1515.07 216.538 1520.33 215.314 1524.22 212.868C1528.1 210.421 1530.05 206.536 1530.05 201.211C1530.05 197.757 1529.18 195.095 1527.45 193.224C1525.87 191.21 1523.57 189.627 1520.54 188.475C1517.53 187.18 1513.93 186.101 1509.75 185.237C1505.72 184.374 1501.19 183.367 1496.15 182.215C1488.39 180.488 1481.69 178.186 1476.08 175.308C1470.46 172.43 1466.14 168.688 1463.13 164.083C1460.1 159.478 1458.59 153.793 1458.59 147.03C1458.59 139.402 1460.61 132.783 1464.64 127.17C1468.81 121.558 1474.64 117.241 1482.12 114.218C1489.6 111.196 1498.39 109.685 1508.46 109.685C1518.54 109.685 1527.17 111.124 1534.37 114.003C1541.7 116.881 1547.39 121.054 1551.41 126.523C1555.59 131.991 1557.96 138.611 1558.55 146.382L1530.48 150.052C1530.48 143.72 1528.53 138.827 1524.65 135.373C1520.77 131.775 1515.01 129.976 1507.38 129.976C1501.19 129.976 1496.44 131.272 1493.13 133.862C1489.96 136.308 1488.39 139.546 1488.39 143.576C1488.39 147.174 1489.53 150.052 1491.84 152.21C1494.28 154.369 1497.88 156.096 1502.63 157.391C1507.52 158.686 1513.57 160.125 1520.77 161.708C1526.38 162.86 1531.56 164.299 1536.3 166.026C1541.2 167.609 1545.44 169.767 1549.04 172.501C1552.64 175.236 1555.44 178.762 1557.47 183.079C1559.47 187.252 1560.48 192.577 1560.48 199.053C1560.48 210.421 1556.03 219.632 1547.09 226.683C1538.32 233.735 1525.09 237.26 1507.38 237.26Z" fill="#0D0D0D"/>
</svg>
