<svg width="1600" height="801" viewBox="0 0 1600 801" fill="none" xmlns="http://www.w3.org/2000/svg">
<rect y="0.366699" width="1600" height="800" fill="#0D0D0D"/>
<path fill-rule="evenodd" clip-rule="evenodd" d="M800.001 75.3667C693.773 75.3667 607.659 161.481 607.659 267.708C607.659 373.936 693.773 460.05 800.001 460.05C906.228 460.05 992.342 373.936 992.342 267.708C992.342 161.481 906.228 75.3667 800.001 75.3667ZM918.553 386.261C896.122 408.692 861.779 408.692 800.001 408.692C738.222 408.692 703.879 408.692 681.448 386.261C659.017 363.83 659.017 329.486 659.017 267.708C659.017 205.93 659.017 171.587 681.448 149.156C703.879 126.725 738.222 126.725 800.001 126.725C861.779 126.725 896.122 126.725 918.553 149.156C940.984 171.587 940.984 205.93 940.984 267.708C940.984 329.486 940.984 363.83 918.553 386.261Z" fill="#F2F2F2"/>
<path d="M791.705 232.111V175.759H806.277V232.111H791.705ZM770.4 177.234V164.876H827.397V177.234H770.4ZM839.575 232.111L820.76 164.876H835.609L847.968 216.247H846.769L859.773 164.876H873.7L886.52 216.247H885.413L897.864 164.876H912.897L893.714 232.111H877.943L866.137 184.982H867.428L855.531 232.111H839.575Z" fill="#F2F2F2"/>
<path d="M825.137 722.917L775.406 544.326H810.438L845.47 686.415H842.04L879.277 544.326H912.594L949.097 686.17H946.157L981.189 544.326H1016.71L966.245 722.917H928.518L894.221 588.913H897.896L863.109 722.917H825.137ZM1068.1 725.367C1054.22 725.367 1042.05 722.345 1031.6 716.302C1021.31 710.26 1013.31 701.849 1007.59 691.07C1002.04 680.127 999.261 667.47 999.261 653.098C999.261 638.399 1002.04 625.66 1007.59 614.881C1013.31 604.102 1021.31 595.691 1031.6 589.648C1042.05 583.605 1054.3 580.584 1068.35 580.584C1082.23 580.584 1094.32 583.605 1104.61 589.648C1114.89 595.691 1122.81 604.102 1128.36 614.881C1134.08 625.66 1136.93 638.399 1136.93 653.098C1136.93 667.47 1134.08 680.127 1128.36 691.07C1122.81 701.849 1114.89 710.26 1104.61 716.302C1094.32 722.345 1082.15 725.367 1068.1 725.367ZM1068.1 697.684C1079.21 697.684 1087.87 693.764 1094.06 685.925C1100.27 678.086 1103.39 667.061 1103.39 652.853C1103.39 638.644 1100.27 627.701 1094.06 620.025C1087.87 612.186 1079.21 608.266 1068.1 608.266C1056.99 608.266 1048.34 612.186 1042.13 620.025C1035.93 627.865 1032.82 638.807 1032.82 652.853C1032.82 667.061 1035.93 678.086 1042.13 685.925C1048.34 693.764 1056.99 697.684 1068.1 697.684Z" fill="#F2F2F2"/>
<path d="M181.529 722.917V569.804H215.826V722.917H181.529ZM123.224 573.724V544.326H273.886V573.724H123.224ZM295.191 725.366C281.309 725.366 269.141 722.345 258.689 716.302C248.4 710.259 240.397 701.848 234.681 691.069C229.128 680.127 226.352 667.469 226.352 653.097C226.352 638.398 229.128 625.66 234.681 614.88C240.397 604.101 248.4 595.69 258.689 589.647C269.141 583.605 281.391 580.583 295.436 580.583C309.318 580.583 321.404 583.605 331.693 589.647C341.982 595.69 349.903 604.101 355.456 614.88C361.172 625.66 364.03 638.398 364.03 653.097C364.03 667.469 361.172 680.127 355.456 691.069C349.903 701.848 341.982 710.259 331.693 716.302C321.404 722.345 309.237 725.366 295.191 725.366ZM295.191 697.684C306.297 697.684 314.953 693.764 321.159 685.925C327.365 678.085 330.468 667.061 330.468 652.852C330.468 638.643 327.365 627.701 321.159 620.025C314.953 612.186 306.297 608.266 295.191 608.266C284.085 608.266 275.429 612.186 269.223 620.025C263.017 627.864 259.914 638.807 259.914 652.852C259.914 667.061 263.017 678.085 269.223 685.925C275.429 693.764 284.085 697.684 295.191 697.684ZM468.084 722.917L426.682 657.017L404.879 677.595L405.124 639.868L461.469 583.033H503.851L447.261 637.174V630.069L508.261 722.917H468.084ZM374.012 722.917V529.382H407.819V722.917H374.012ZM558.997 725.366C545.442 725.366 533.437 722.59 522.985 717.037C512.532 711.321 504.366 703.073 498.487 692.294C492.607 681.515 489.668 668.449 489.668 653.097C489.668 638.398 492.444 625.66 497.997 614.88C503.55 603.938 511.389 595.527 521.515 589.647C531.804 583.605 543.972 580.583 558.017 580.583C572.063 580.583 584.148 583.686 594.274 589.892C604.4 596.099 611.994 605.326 617.057 617.575C622.12 629.661 623.917 644.523 622.447 662.162H517.105V639.133H598.929L587.415 649.178C589.538 635.949 587.823 625.496 582.27 617.82C576.881 610.144 568.633 606.306 557.527 606.306C546.911 606.306 538.419 610.062 532.049 617.575C525.843 625.088 522.74 636.684 522.74 652.362C522.74 668.531 525.925 680.372 532.294 687.884C538.664 695.234 547.728 698.909 559.487 698.909C568.47 698.909 575.737 696.949 581.29 693.029C587.006 689.109 590.6 683.556 592.069 676.37L621.222 683.72C619.425 692.049 615.669 699.317 609.953 705.523C604.237 711.729 597.051 716.629 588.395 720.222C579.739 723.651 569.94 725.366 558.997 725.366ZM633.796 722.917V583.033H664.908L666.378 602.631C671.931 594.955 678.219 589.402 685.242 585.973C692.264 582.38 700.512 580.583 709.985 580.583C724.194 580.583 735.626 584.666 744.282 592.832C753.101 600.835 757.511 612.839 757.511 628.844V722.917H723.704V633.744C723.704 626.231 721.58 620.433 717.334 616.35C713.088 612.104 706.8 609.981 698.471 609.981C692.918 609.981 687.773 611.206 683.037 613.655C678.464 616.105 674.789 619.617 672.013 624.19C669.4 628.599 667.93 633.907 667.603 640.113V722.917H633.796Z" fill="#F2F2F2"/>
<path d="M1145.97 722.665V582.782L1175.96 583.034L1177.76 604.837C1182.58 596.834 1188.31 590.955 1194.93 587.198C1201.75 583.28 1209.78 581.32 1219.02 581.32C1225.04 581.32 1229.87 581.81 1233.48 582.789V614.391H1231.68C1230.06 613.901 1228.05 613.493 1225.65 613.166C1223.44 612.839 1221.03 612.676 1218.42 612.676C1207.59 612.676 1198.74 615.126 1191.92 620.025C1185.3 624.762 1181.29 631.376 1179.87 639.869V722.917L1145.97 722.665Z" fill="#F2F2F2"/>
<path d="M1327.29 722.917L1285.9 657.018L1264.09 677.596L1264.34 639.869L1320.69 583.034H1363.07L1306.46 637.174V630.07L1367.47 722.917H1327.29ZM1233.23 722.917V529.383H1267.03V722.917H1233.23Z" fill="#F2F2F2"/>
<path d="M1416.52 725.367C1398.06 725.367 1383.68 721.284 1373.39 713.118C1363.12 704.952 1357.47 693.764 1356.5 679.555L1388.84 675.636C1388.84 683.475 1391.36 689.845 1396.43 694.744C1401.65 699.48 1408.76 701.849 1417.74 701.849C1425.25 701.849 1431.22 700.46 1435.62 697.684C1440.03 694.908 1442.24 690.498 1442.24 684.455C1442.24 680.535 1441.25 677.514 1439.3 675.391C1437.49 673.104 1434.89 671.308 1431.46 670.001C1428.04 668.531 1423.95 667.306 1419.21 666.327C1414.63 665.347 1409.49 664.203 1403.78 662.897C1394.96 660.937 1387.36 658.324 1381 655.057C1374.62 651.791 1369.72 647.545 1366.3 642.318C1362.86 637.092 1361.14 630.641 1361.14 622.965C1361.14 614.309 1363.44 606.796 1368.02 600.427C1372.75 594.057 1379.36 589.158 1387.85 585.728C1396.34 582.298 1406.31 580.584 1417.74 580.584C1429.18 580.584 1438.98 582.217 1447.14 585.483C1455.46 588.75 1461.92 593.486 1466.48 599.692C1471.23 605.898 1473.92 613.411 1474.58 622.23L1442.73 626.395C1442.73 619.209 1440.52 613.656 1436.12 609.736C1431.71 605.653 1425.18 603.612 1416.52 603.612C1409.49 603.612 1404.1 605.081 1400.34 608.021C1396.75 610.798 1394.96 614.472 1394.96 619.045C1394.96 623.128 1396.26 626.395 1398.88 628.845C1401.65 631.294 1405.73 633.254 1411.13 634.724C1416.67 636.194 1423.54 637.827 1431.71 639.624C1438.07 640.93 1443.96 642.563 1449.34 644.523C1454.9 646.32 1459.71 648.77 1463.8 651.873C1467.88 654.976 1471.06 658.977 1473.36 663.877C1475.64 668.613 1476.78 674.656 1476.78 682.005C1476.78 694.908 1471.72 705.36 1461.58 713.363C1451.63 721.365 1436.61 725.367 1416.52 725.367Z" fill="#F2F2F2"/>
</svg>
