<svg width="1133" height="501" viewBox="0 0 1133 501" fill="none" xmlns="http://www.w3.org/2000/svg">
<path d="M76.6543 249.349V52.8011H120.681V249.349H76.6543ZM1.80859 57.8327V20.0952H195.212V57.8327H1.80859ZM222.561 252.494C204.741 252.494 189.122 248.616 175.704 240.859C162.496 233.102 152.223 222.305 144.885 208.467C137.757 194.421 134.193 178.173 134.193 159.723C134.193 140.855 137.757 124.502 144.885 110.665C152.223 96.8279 162.496 86.0309 175.704 78.2737C189.122 70.5164 204.845 66.6381 222.875 66.6381C240.696 66.6381 256.21 70.5164 269.418 78.2737C282.626 86.0309 292.794 96.8279 299.923 110.665C307.26 124.502 310.929 140.855 310.929 159.723C310.929 178.173 307.26 194.421 299.923 208.467C292.794 222.305 282.626 233.102 269.418 240.859C256.21 248.616 240.591 252.494 222.561 252.494ZM222.561 216.958C236.817 216.958 247.929 211.927 255.896 201.863C263.862 191.8 267.846 177.648 267.846 159.409C267.846 141.169 263.862 127.123 255.896 117.269C247.929 107.206 236.817 102.174 222.561 102.174C208.305 102.174 197.193 107.206 189.226 117.269C181.259 127.332 177.276 141.379 177.276 159.409C177.276 177.648 181.259 191.8 189.226 201.863C197.193 211.927 208.305 216.958 222.561 216.958ZM444.501 249.349L391.357 164.755L363.366 191.171L363.682 142.742L436.01 69.7827H490.417L417.772 139.282V130.163L496.077 249.349H444.501ZM323.742 249.349V0.912109H367.14V249.349H323.742ZM561.205 252.494C543.804 252.494 528.395 248.93 514.979 241.802C501.56 234.464 491.078 223.877 483.53 210.04C475.982 196.203 472.208 179.431 472.208 159.723C472.208 140.855 475.774 124.502 482.901 110.665C490.03 96.6183 500.094 85.8213 513.09 78.2737C526.298 70.5164 541.919 66.6381 559.949 66.6381C577.979 66.6381 593.491 70.6213 606.491 78.5882C619.488 86.555 629.238 98.4002 635.738 114.124C642.235 129.639 644.542 148.717 642.657 171.359H507.431V141.798H612.467L597.684 154.692C600.41 137.71 598.208 124.292 591.081 114.439C584.163 104.585 573.575 99.658 559.319 99.658C545.693 99.658 534.789 104.48 526.615 114.124C518.648 123.768 514.663 138.653 514.663 158.78C514.663 179.536 518.75 194.735 526.928 204.379C535.106 213.814 546.741 218.531 561.834 218.531C573.365 218.531 582.696 216.015 589.822 210.983C597.16 205.951 601.774 198.823 603.66 189.599L641.085 199.033C638.777 209.725 633.955 219.055 626.618 227.022C619.28 234.988 610.054 241.278 598.943 245.89C587.831 250.293 575.253 252.494 561.205 252.494ZM657.223 249.349V69.7827H697.163L699.048 94.9409C706.178 85.0872 714.25 77.9592 723.265 73.5565C732.28 68.9442 742.868 66.6381 755.027 66.6381C773.265 66.6381 787.943 71.8794 799.054 82.3619C810.374 92.6348 816.036 108.044 816.036 128.59V249.349H772.639V134.88C772.639 125.236 769.913 117.793 764.461 112.552C759.009 107.101 750.94 104.375 740.247 104.375C733.118 104.375 726.515 105.948 720.434 109.092C714.563 112.237 709.846 116.745 706.283 122.615C702.928 128.276 701.042 135.089 700.624 143.056V249.349H657.223Z" fill="#F2F2F2"/>
<path d="M133.364 497.767L69.5269 268.513H114.497L159.467 450.911H155.066L202.864 268.513H245.636L292.491 450.595H288.717L333.687 268.513H379.286L314.506 497.767H266.075L222.048 325.749H226.765L182.108 497.767H133.364ZM445.255 500.911C427.436 500.911 411.815 497.035 398.4 489.276C385.192 481.52 374.918 470.722 367.581 456.884C360.451 442.839 356.888 426.589 356.888 408.14C356.888 389.273 360.451 372.92 367.581 359.083C374.918 345.246 385.192 334.447 398.4 326.691C411.815 318.934 427.541 315.056 445.572 315.056C463.391 315.056 478.912 318.934 492.123 326.691C505.315 334.447 515.49 345.246 522.61 359.083C529.948 372.92 533.616 389.273 533.616 408.14C533.616 426.589 529.948 442.839 522.61 456.884C515.49 470.722 505.315 481.52 492.123 489.276C478.912 497.035 463.285 500.911 445.255 500.911ZM445.255 465.375C459.511 465.375 470.635 460.345 478.583 450.282C486.556 440.219 490.551 426.065 490.551 407.827C490.551 389.586 486.556 375.541 478.583 365.685C470.635 355.622 459.511 350.592 445.255 350.592C430.999 350.592 419.888 355.622 411.921 365.685C403.954 375.749 399.972 389.797 399.972 407.827C399.972 426.065 403.954 440.219 411.921 450.282C419.888 460.345 430.999 465.375 445.255 465.375Z" fill="#F2F2F2"/>
<path d="M545.213 497.445V317.878L583.715 318.201L586.029 346.189C592.209 335.918 599.569 328.37 608.066 323.548C616.823 318.518 627.129 316.002 638.988 316.002C646.718 316.002 652.921 316.631 657.552 317.887V358.454H655.238C653.161 357.825 650.585 357.301 647.505 356.882C644.667 356.463 641.567 356.252 638.224 356.252C624.313 356.252 612.956 359.397 604.2 365.686C595.705 371.768 590.551 380.258 588.739 391.159V497.768L545.213 497.445Z" fill="#F2F2F2"/>
<path d="M777.972 497.768L724.837 413.174L696.84 439.59L697.169 391.159L769.497 318.202H823.898L751.24 387.701V378.581L829.554 497.768H777.972ZM657.226 497.768V249.331H700.617V497.768H657.226Z" fill="#F2F2F2"/>
<path d="M892.516 500.912C868.82 500.912 850.368 495.671 837.154 485.189C823.965 474.707 816.714 460.346 815.468 442.105L856.983 437.075C856.983 447.138 860.217 455.313 866.724 461.602C873.428 467.683 882.558 470.722 894.088 470.722C903.72 470.722 911.383 468.942 917.04 465.376C922.696 461.813 925.537 456.153 925.537 448.394C925.537 443.364 924.269 439.484 921.757 436.758C919.443 433.825 916.1 431.518 911.69 429.84C907.299 427.954 902.058 426.382 895.967 425.123C890.091 423.867 883.498 422.397 876.157 420.722C864.845 418.204 855.085 414.852 846.917 410.659C838.726 406.466 832.437 401.015 828.049 394.304C823.636 387.596 821.431 379.316 821.431 369.46C821.431 358.349 824.377 348.707 830.254 340.53C836.326 332.352 844.82 326.063 855.718 321.662C866.615 317.258 879.414 315.057 894.088 315.057C908.763 315.057 921.341 317.153 931.826 321.346C942.503 325.539 950.803 331.62 956.657 339.587C962.748 347.554 966.199 357.195 967.053 368.517L926.17 373.864C926.17 364.638 923.329 357.511 917.673 352.478C912.016 347.237 903.631 344.617 892.516 344.617C883.498 344.617 876.573 346.506 871.747 350.28C867.139 353.843 864.844 358.56 864.844 364.43C864.844 369.671 866.506 373.864 869.868 377.008C873.428 380.153 878.669 382.668 885.594 384.557C892.711 386.442 901.534 388.539 912.016 390.846C920.185 392.524 927.742 394.62 934.642 397.135C941.784 399.442 947.965 402.587 953.206 406.569C958.447 410.554 962.531 415.689 965.477 421.978C968.404 428.06 969.868 435.816 969.868 445.249C969.868 461.813 963.381 475.231 950.368 485.502C937.591 495.777 918.308 500.912 892.516 500.912Z" fill="#F2F2F2"/>
<path d="M994.074 354.196V290.173H1010.63V354.196H994.074ZM969.869 291.849V277.808H1034.63V291.849H969.869ZM1048.46 354.196L1027.09 277.808H1043.96L1058 336.173H1056.63L1071.41 277.808H1087.23L1101.8 336.173H1100.54L1114.69 277.808H1131.76L1109.97 354.196H1092.05L1078.64 300.651H1080.11L1066.59 354.196H1048.46Z" fill="#F2F2F2"/>
</svg>
